<svg class="ferias_svg" xmlns="http://www.w3.org/2000/svg" viewBox="0 0 800 200">
    <g transform="translate(20 -852.362)">
            <path d="M368.627 925.737l-1.68 26.264h8.064l-1.624-26.264h-4.76m6.888-8.512a4.398 4.398 0 0 0-4.424-4.424c-2.464 0-4.48 1.96-4.48 4.424a4.493 4.493 0 0 0 4.48 4.48c2.464 0 4.424-2.016 4.424-4.48M390.124 902.497v35.616h8.064v-15.96h.28c8.848 0 13.328-7.28 13.328-13.44 0-7.56-6.16-12.6-15.232-12.6-9.464 0-17.36 5.936-17.36 13.496 0 4.48 2.8 6.496 7.28 6.496-.728-1.008-1.96-2.128-1.96-6.104 0-7.84 4.704-11.312 11.368-11.312 8.4 0 9.464 5.488 9.464 9.128 0 5.656-2.576 11.76-7.168 12.264v-18.704l-8.064 1.12M427.992 910.113v2.688c-.952-2.632-3.416-2.968-5.264-2.968-7.784 0-10.696 8.792-10.696 15.624 0 9.744 5.152 12.992 9.856 12.992 3.976 0 6.048-2.576 7.224-5.152.784 3.192 2.744 5.152 6.664 5.152 3.024 0 8.288-1.232 9.52-10.36h-2.352c-.224 2.8-1.792 4.928-3.976 4.928s-2.912-.728-2.912-3.864v-19.04h-8.064m0 17.976c0 3.248-2.016 4.928-3.64 4.928-1.4 0-4.144-.112-4.144-8.064 0-4.872 1.4-11.648 5.04-11.648 1.848 0 2.576 1.568 2.744 2.184v12.6"/>
            <path d="M463.798 928.09c-.896.895-2.128 1.903-3.416 2.8v-.337c0-5.488-1.12-7.672-4.872-22.176l-8.064 1.12c-.616 5.488-2.128 11.032-4.256 16.576-1.176.616-2.072 2.072-2.072 4.088 0 3.64 3.304 8.288 9.856 8.288 2.688 0 5.936-.896 7.84-3.192 2.24-1.568 5.04-3.696 7.336-7.168h-2.352m-16.184.504c0-1.176-.728-1.96-1.568-2.352 1.176-3.528 2.352-6.832 3.08-10.36 2.296 8.4 3.08 10.248 3.08 14.224 0 2.912-1.848 3.92-3.976 3.92-2.464 0-3.696-1.288-4.256-3.92.392.56 1.12.728 1.68.728 1.232 0 1.96-1.12 1.96-2.24"/>
            <path d="M478.851 910.113v2.688c-.952-2.632-3.416-2.968-5.264-2.968-7.784 0-10.696 8.792-10.696 15.624 0 9.744 5.152 12.992 9.856 12.992 3.976 0 6.048-2.576 7.224-5.152.728 3.136 2.576 5.152 6.272 5.152 3.136 0 4.032-1.456 4.704-5.656-.336.168-.616.224-1.12.224-2.184 0-2.912-.728-2.912-3.864v-19.04h-8.064m-2.744 3.192c1.792 0 2.52 1.512 2.744 2.128v12.712c0 3.248-2.016 4.872-3.64 4.872-1.4 0-4.144-.112-4.144-8.064 0-4.872 1.4-11.648 5.04-11.648m-2.576-6.608h4.2l4.536-10.584h-5.88l-2.856 10.584M520.851 910.113v2.688c-.952-2.632-3.416-2.968-5.264-2.968-7.784 0-10.696 8.792-10.696 15.624 0 9.744 5.152 12.992 9.856 12.992 3.976 0 6.048-2.576 7.224-5.152.728 3.136 2.576 5.152 6.272 5.152 3.136 0 4.032-1.456 4.704-5.656-.336.168-.616.224-1.12.224-2.184 0-2.912-.728-2.912-3.864v-19.04h-8.064m-2.744 3.192c1.792 0 2.52 1.512 2.744 2.128v12.712c0 3.248-2.016 4.872-3.64 4.872-1.4 0-4.144-.112-4.144-8.064 0-4.872 1.4-11.648 5.04-11.648M562.515 908.993c-1.848 0-2.8 1.008-2.8 2.352 0 1.456 1.12 3.528 2.688 3.528.448 0 1.568-.168 1.68-.56.28 1.4.448 3.024.448 4.816 0 6.328-1.904 13.888-6.216 13.888-1.736 0-2.408-1.176-2.408-3.864v-19.04h-8.064v19.04c0 5.656 3.192 9.296 8.512 9.296 8.792 0 11.536-10.36 11.536-18.928 0-6.552-1.624-10.528-5.376-10.528M583.799 933.745c-4.032 0-5.376-1.96-5.488-6.944 5.544-.28 10.976-3.808 10.976-10.472 0-1.176-.168-6.496-7.28-6.496-9.352 0-11.872 9.296-11.872 15.792 0 9.128 4.592 12.824 11.032 12.824 7.616 0 11.2-5.208 13.272-10.36h-1.904c-2.128 3.192-4.2 5.656-8.736 5.656m1.176-17.36c0 4.144-2.912 7.448-6.664 7.728.28-6.048 2.016-11.312 4.536-11.312 1.064 0 2.128 1.008 2.128 3.584"/>
            <path d="M592.578 910.113v28h8.064v-21.28c1.176-1.288 2.24-2.24 3.36-2.24 2.128 0 .896 3.528 4.256 3.528 2.296 0 3.248-1.68 3.248-3.304 0-2.352-2.016-4.984-4.816-4.984-2.352 0-4.424 1.792-6.048 3.752v-3.472h-8.064M627.967 921.201c0 1.456-.112 5.432-.112 6.776 0 6.328 2.408 10.472 8.176 10.472 3.304 0 7.112-1.344 8.288-10.36h-2.352c-.616 2.856-1.288 4.928-3.864 4.928-2.296 0-2.744-1.624-2.744-4.816 0-1.904.224-6.048.224-8.008 0-7.84-3.584-10.304-7.84-10.304-1.904 0-4.256.504-5.992 3.136v-2.912h-8.064v28h8.064v-17.976c.224-2.576 1.064-5.152 3.304-5.152 1.848 0 2.912 1.736 2.912 6.216"/>
            <path d="M668.727 909.497c-1.904 5.096-4.032 8.288-6.608 8.848-1.008-5.936-4.088-8.512-9.072-8.512-9.688 0-11.984 9.576-11.984 15.96 0 9.464 4.984 12.656 10.472 12.656 8.064 0 10.92-6.888 10.92-15.512 0-.616-.056-1.176-.056-1.736 3.08-1.12 5.544-3.696 7.392-7.672 3.024 10.528 4.76 12.376 4.76 17.36 0 2.296-.896 3.136-2.744 3.136-2.128 0-3.584-1.568-4.144-4.2.392.56 1.12.728 1.68.728 1.288 0 2.184-.952 2.184-2.128 0-1.736-1.12-2.744-3.416-2.744-1.624 0-3.08 1.568-3.08 4.088 0 4.648 2.856 8.68 9.52 8.68 3.976 0 8.12-1.96 8.12-7.56 0-5.824-2.128-8.008-5.88-22.512l-8.064 1.12m-15.624 23.688c-1.68 0-3.808-1.232-3.808-7.952 0-5.208 1.288-12.04 4.592-12.04.84 0 2.128.504 2.968 2.912-.896.336-1.456 1.12-1.456 2.352 0 1.848.728 2.968 2.24 3.304v.728c0 6.104-1.344 10.696-4.536 10.696M317.718 970.033v29.736c0 5.208 2.016 8.68 7.784 8.68 3.024 0 8.288-1.232 9.52-10.36h-2.352c-.224 2.8-1.792 4.928-3.976 4.928s-2.912-.728-2.912-3.864v-30.24l-8.064 1.12"/>
            <path d="M347.71 980.113v2.688c-.951-2.632-3.415-2.968-5.263-2.968-7.784 0-10.696 8.792-10.696 15.624 0 9.744 5.152 12.992 9.856 12.992 3.976 0 6.048-2.576 7.224-5.152.728 3.136 2.576 5.152 6.272 5.152 3.136 0 4.032-1.456 4.704-5.656-.336.168-.616.224-1.12.224-2.184 0-2.912-.728-2.912-3.864v-19.04h-8.064m-2.744 3.192c1.792 0 2.52 1.512 2.744 2.128v12.712c0 3.248-2.016 4.872-3.64 4.872-1.4 0-4.144-.112-4.144-8.064 0-4.872 1.4-11.648 5.04-11.648M374.703 978.041v44.072l8.064-2.016v-13.608c.84 1.008 2.408 1.96 5.208 1.96 7.952 0 10.248-7.728 10.248-14.952 0-10.08-4.48-13.664-9.52-13.664-2.744 0-4.648 1.064-5.936 2.408v-4.2h-8.064m10.584 25.536c-1.344 0-2.128-.672-2.52-1.288v-15.624c.616-1.848 2.016-2.8 3.36-2.8 1.008 0 4.312.56 4.312 8.848 0 5.096-1.232 10.864-5.152 10.864M400.953 980.113v28h8.064v-21.28c1.176-1.288 2.24-2.24 3.36-2.24 2.128 0 .896 3.528 4.256 3.528 2.296 0 3.248-1.68 3.248-3.304 0-2.352-2.016-4.984-4.816-4.984-2.352 0-4.424 1.792-6.048 3.752v-3.472h-8.064M432.702 979.833c-9.072 0-11.592 9.464-11.592 15.792 0 9.464 4.984 12.824 11.312 12.824 6.048 0 10.08-5.656 10.08-14.448 0-1.008-.056-1.904-.112-2.8 2.464-.896 4.536-2.632 6.216-5.32l3.472 8.736c-3.192 2.408-6.048 6.664-6.048 10.136 0 2.744 1.456 4.984 4.648 4.984 1.568 0 2.576-.728 2.576-2.296 0-2.072-1.064-3.528-2.968-3.528-.224 0-.448 0-.728.056-.056-.224-.056-.448-.056-.672 0-2.072 1.792-4.088 3.808-5.6l.168.392c2.912 7.336 5.152 10.36 9.24 10.36 3.024 0 8.064-1.232 9.352-10.36h-2.352c-.28 2.8-1.848 4.928-4.032 4.928-2.408 0-3.416-2.688-4.312-4.928l-1.288-3.192c3.36-4.648 5.936-9.688 5.936-13.384 0-3.416-2.184-4.984-4.256-4.984-1.792 0-3.472 1.176-3.472 3.08 0 1.568 1.12 3.192 3.472 3.192.448 0 .336-.056.84-.112.056.28.056.504.056.784 0 2.072-1.456 4.592-3.92 8.008l-4.48-11.368h-7.896l1.008 2.632c-1.624 3.248-3.36 5.264-5.432 5.6-1.12-5.544-4.2-8.512-9.24-8.512m.84 23.352c-2.128 0-4.2-.84-4.2-8.064 0-5.04 1.512-11.928 4.536-11.928 1.064 0 2.296.448 3.08 2.912-.896.336-1.512 1.12-1.512 2.352 0 1.848.728 2.968 2.24 3.304v1.008c0 5.768-1.68 10.416-4.144 10.416m-3.248-26.488h4.2l4.536-10.584h-5.88l-2.856 10.584"/>
            <path d="M470.078 980.113v19.656c0 5.208 2.016 8.68 7.784 8.68 3.024 0 8.288-1.232 9.52-10.36h-2.352c-.224 2.8-1.792 4.928-3.976 4.928s-2.912-.728-2.912-3.864v-19.04h-8.064m-.616-7.448a4.398 4.398 0 0 0 4.424 4.424c2.464 0 4.48-1.96 4.48-4.424a4.493 4.493 0 0 0-4.48-4.48c-2.464 0-4.424 2.016-4.424 4.48"/>
            <path d="M513.174 991.201c0 1.4-.112 5.432-.112 6.776 0 6.328 2.464 10.472 8.064 10.472 3.416 0 7.224-1.512 8.4-10.36h-2.352c-.616 2.856-1.12 4.928-3.696 4.928-2.296 0-2.912-1.624-2.912-4.816 0-1.904.224-6.048.224-8.008 0-7.84-3.584-10.304-7.84-10.304-2.24 0-5.096.672-6.944 4.76-1.512-3.752-3.976-4.816-6.776-4.816-1.904 0-4.312.504-6.104 3.192v-2.912h-8.064v28h8.064v-17.976c.224-2.8 1.288-5.208 3.304-5.208 1.904 0 2.464 2.072 2.464 3.864v19.32h8.064v-17.976c.224-2.744 1.176-5.152 3.304-5.152 1.792 0 2.912 1.736 2.912 6.216"/>
            <path d="M542.18 980.113v2.688c-.953-2.632-3.417-2.968-5.265-2.968-7.784 0-10.696 8.792-10.696 15.624 0 9.744 5.152 12.992 9.856 12.992 3.976 0 6.048-2.576 7.224-5.152.728 3.136 2.576 5.152 6.272 5.152 3.136 0 4.032-1.456 4.704-5.656-.336.168-.616.224-1.12.224-2.184 0-2.912-.728-2.912-3.864v-19.04h-8.064m-2.744 3.192c1.792 0 2.52 1.512 2.744 2.128v12.712c0 3.248-2.016 4.872-3.64 4.872-1.4 0-4.144-.112-4.144-8.064 0-4.872 1.4-11.648 5.04-11.648M585.58 974.513c-.393-4.592-3.249-8.344-8.457-8.344-3.36 0-7.952 1.568-7.952 9.52v31.976c-4.592 1.512-8.008 3.024-8.008 7.056 0 4.368 3.92 7.392 8.4 7.392 3.192 0 7.672-1.512 7.672-9.52v-30.24h4.088v-2.24h-4.088v-4.424c0-3.752 1.68-4.592 3.136-4.592 1.792 0 2.184 1.288 2.576 3.416h2.632m-21.448 39.816c0-2.408 2.576-3.92 5.096-4.816v3.248c0 3.304-1.12 4.368-2.296 4.368-1.064 0-2.8-.896-2.8-2.8M596.924 1003.745c-4.032 0-5.376-1.96-5.488-6.944 5.544-.28 10.976-3.808 10.976-10.472 0-1.176-.168-6.496-7.28-6.496-9.352 0-11.872 9.296-11.872 15.792 0 9.128 4.592 12.824 11.032 12.824 7.616 0 11.2-5.208 13.272-10.36h-1.904c-2.128 3.192-4.2 5.656-8.736 5.656m1.176-17.36c0 4.144-2.912 7.448-6.664 7.728.28-6.048 2.016-11.312 4.536-11.312 1.064 0 2.128 1.008 2.128 3.584"/>
            <path d="M605.703 980.113v28h8.064v-21.28c1.176-1.288 2.24-2.24 3.36-2.24 2.128 0 .896 3.528 4.256 3.528 2.296 0 3.248-1.68 3.248-3.304 0-2.352-2.016-4.984-4.816-4.984-2.352 0-4.424 1.792-6.048 3.752v-3.472h-8.064M626.812 980.113v19.656c0 5.208 2.016 8.68 7.784 8.68 3.024 0 8.288-1.232 9.52-10.36h-2.352c-.224 2.8-1.792 4.928-3.976 4.928s-2.912-.728-2.912-3.864v-19.04h-8.064m-.616-7.448a4.398 4.398 0 0 0 4.424 4.424c2.464 0 4.48-1.96 4.48-4.424a4.493 4.493 0 0 0-4.48-4.48c-2.464 0-4.424 2.016-4.424 4.48"/>
            <path d="M656.804 980.113v2.688c-.952-2.632-3.416-2.968-5.264-2.968-7.784 0-10.696 8.792-10.696 15.624 0 9.744 5.152 12.992 9.856 12.992 3.976 0 6.048-2.576 7.224-5.152.728 3.136 2.576 5.152 6.272 5.152 3.136 0 4.032-1.456 4.704-5.656-.336.168-.616.224-1.12.224-2.184 0-2.912-.728-2.912-3.864v-19.04h-8.064m-2.744 3.192c1.792 0 2.52 1.512 2.744 2.128v12.712c0 3.248-2.016 4.872-3.64 4.872-1.4 0-4.144-.112-4.144-8.064 0-4.872 1.4-11.648 5.04-11.648M678.99 995.177l1.68-26.264h-8.065l1.624 26.264h4.76m-6.888 8.512a4.398 4.398 0 0 0 4.424 4.424c2.464 0 4.48-1.96 4.48-4.424a4.493 4.493 0 0 0-4.48-4.48c-2.464 0-4.424 2.016-4.424 4.48"/>
    </g>
</svg>
