<?xml version="1.0" encoding="UTF-8" standalone="no"?>
<!-- Generator: Adobe Illustrator 16.0.0, SVG Export Plug-In . SVG Version: 6.00 Build 0)  -->

<svg
   xmlns:dc="http://purl.org/dc/elements/1.1/"
   xmlns:cc="http://creativecommons.org/ns#"
   xmlns:rdf="http://www.w3.org/1999/02/22-rdf-syntax-ns#"
   xmlns:svg="http://www.w3.org/2000/svg"
   xmlns="http://www.w3.org/2000/svg"
   xmlns:sodipodi="http://sodipodi.sourceforge.net/DTD/sodipodi-0.dtd"
   xmlns:inkscape="http://www.inkscape.org/namespaces/inkscape"
   version="1.1"
   id="svg2"
   sodipodi:docname="proxima_feria2.svg"
   inkscape:version="0.48.4 r9939"
   x="0px"
   y="0px"
   width="800"
   height="250"
   viewBox="0 0 800 250"
   enable-background="new 0 0 800 200"
   xml:space="preserve"><metadata
     id="metadata69"><rdf:RDF><cc:Work
         rdf:about=""><dc:format>image/svg+xml</dc:format><dc:type
           rdf:resource="http://purl.org/dc/dcmitype/StillImage" /></cc:Work></rdf:RDF></metadata><defs
     id="defs67" /><sodipodi:namedview
     showgrid="false"
     inkscape:cy="-2.1036202"
     inkscape:cx="524.74427"
     inkscape:zoom="0.98994949"
     borderopacity="1.0"
     bordercolor="#666666"
     pagecolor="#ffffff"
     id="base"
     inkscape:window-maximized="0"
     inkscape:window-y="26"
     inkscape:current-layer="text3327"
     inkscape:document-units="px"
     inkscape:pageshadow="2"
     inkscape:pageopacity="0.0"
     inkscape:window-x="0"
     inkscape:window-height="768"
     inkscape:window-width="1024" /><g
     id="g3785"
     transform="translate(-50,10)"><g
       id="text3132"><path
         id="path3735"
         d="m 438.627,93.375 -1.68,26.264 h 8.064 l -1.624,-26.264 h -4.76 m 6.889,-8.512 c 0,-2.464 -1.96,-4.424 -4.424,-4.424 -2.465,0 -4.48,1.96 -4.48,4.424 0,2.464 2.016,4.48 4.48,4.48 2.464,0 4.424,-2.016 4.424,-4.48"
         inkscape:connector-curvature="0" /><path
         id="path3737"
         d="m 460.123,70.135 v 35.616 h 8.064 v -15.96 h 0.28 c 8.848,0 13.328,-7.28 13.328,-13.44 0,-7.56 -6.16,-12.6 -15.232,-12.6 -9.464,0 -17.36,5.937 -17.36,13.496 0,4.48 2.801,6.496 7.28,6.496 -0.728,-1.008 -1.96,-2.128 -1.96,-6.104 0,-7.84 4.704,-11.312 11.368,-11.312 8.4,0 9.464,5.488 9.464,9.128 0,5.656 -2.576,11.76 -7.168,12.264 V 69.015 l -8.064,1.12"
         inkscape:connector-curvature="0" /><path
         id="path3739"
         d="m 497.992,77.751 v 2.688 c -0.952,-2.632 -3.416,-2.968 -5.265,-2.968 -7.784,0 -10.695,8.792 -10.695,15.624 0,9.745 5.151,12.993 9.855,12.993 3.976,0 6.048,-2.576 7.224,-5.152 0.784,3.191 2.744,5.152 6.664,5.152 3.024,0 8.288,-1.232 9.521,-10.361 h -2.353 c -0.224,2.8 -1.792,4.928 -3.976,4.928 -2.184,0 -2.912,-0.728 -2.912,-3.864 v -19.04 h -8.063 m 0,17.976 c 0,3.248 -2.017,4.928 -3.641,4.928 -1.399,0 -4.144,-0.112 -4.144,-8.064 0,-4.872 1.399,-11.648 5.04,-11.648 1.848,0 2.576,1.568 2.744,2.184 v 12.6"
         inkscape:connector-curvature="0" /><path
         id="path3741"
         d="m 533.798,95.727 c -0.896,0.896 -2.128,1.904 -3.416,2.8 v -0.336 c 0,-5.488 -1.12,-7.672 -4.872,-22.176 l -8.064,1.12 c -0.615,5.488 -2.128,11.032 -4.256,16.576 -1.176,0.616 -2.072,2.072 -2.072,4.088 0,3.64 3.305,8.289 9.856,8.289 2.688,0 5.936,-0.896 7.84,-3.193 2.24,-1.567 5.04,-3.695 7.336,-7.167 h -2.352 m -16.185,0.503 c 0,-1.176 -0.728,-1.96 -1.567,-2.352 1.176,-3.528 2.352,-6.832 3.08,-10.36 2.296,8.4 3.08,10.248 3.08,14.224 0,2.912 -1.849,3.92 -3.977,3.92 -2.464,0 -3.696,-1.288 -4.256,-3.92 0.392,0.56 1.12,0.728 1.68,0.728 1.233,0 1.96,-1.12 1.96,-2.24"
         inkscape:connector-curvature="0" /><path
         id="path3743"
         d="m 548.852,77.751 v 2.688 c -0.952,-2.632 -3.416,-2.968 -5.265,-2.968 -7.784,0 -10.695,8.792 -10.695,15.624 0,9.745 5.151,12.993 9.855,12.993 3.977,0 6.048,-2.576 7.225,-5.152 0.728,3.136 2.575,5.152 6.271,5.152 3.136,0 4.032,-1.457 4.704,-5.657 -0.336,0.168 -0.616,0.224 -1.12,0.224 -2.184,0 -2.912,-0.728 -2.912,-3.864 v -19.04 h -8.063 m -2.745,3.192 c 1.792,0 2.52,1.512 2.744,2.128 v 12.712 c 0,3.248 -2.017,4.872 -3.641,4.872 -1.399,0 -4.144,-0.112 -4.144,-8.064 10e-4,-4.872 1.401,-11.648 5.041,-11.648 m -2.576,-6.608 h 4.2 l 4.536,-10.584 h -5.881 l -2.855,10.584"
         inkscape:connector-curvature="0" /><path
         id="path3745"
         d="m 590.852,77.751 v 2.688 c -0.952,-2.632 -3.416,-2.968 -5.265,-2.968 -7.784,0 -10.695,8.792 -10.695,15.624 0,9.745 5.151,12.993 9.855,12.993 3.977,0 6.048,-2.576 7.225,-5.152 0.728,3.136 2.575,5.152 6.271,5.152 3.136,0 4.032,-1.457 4.704,-5.657 -0.336,0.168 -0.616,0.224 -1.12,0.224 -2.184,0 -2.912,-0.728 -2.912,-3.864 v -19.04 h -8.063 m -2.745,3.192 c 1.792,0 2.52,1.512 2.744,2.128 v 12.712 c 0,3.248 -2.017,4.872 -3.641,4.872 -1.399,0 -4.144,-0.112 -4.144,-8.064 10e-4,-4.872 1.401,-11.648 5.041,-11.648"
         inkscape:connector-curvature="0" /><path
         id="path3747"
         d="m 632.516,76.631 c -1.849,0 -2.801,1.008 -2.801,2.352 0,1.456 1.12,3.528 2.688,3.528 0.448,0 1.567,-0.168 1.68,-0.56 0.28,1.4 0.448,3.024 0.448,4.816 0,6.328 -1.904,13.888 -6.216,13.888 -1.736,0 -2.408,-1.176 -2.408,-3.864 v -19.04 h -8.064 v 19.04 c 0,5.656 3.192,9.297 8.513,9.297 8.792,0 11.536,-10.361 11.536,-18.929 0,-6.552 -1.624,-10.528 -5.376,-10.528"
         inkscape:connector-curvature="0" /><path
         id="path3749"
         d="m 653.799,101.383 c -4.032,0 -5.376,-1.959 -5.488,-6.943 5.544,-0.28 10.977,-3.808 10.977,-10.472 0,-1.176 -0.168,-6.496 -7.28,-6.496 -9.353,0 -11.872,9.296 -11.872,15.792 0,9.127 4.592,12.825 11.032,12.825 7.615,0 11.2,-5.209 13.271,-10.36 h -1.903 c -2.13,3.19 -4.201,5.654 -8.737,5.654 m 1.176,-17.36 c 0,4.144 -2.912,7.448 -6.664,7.728 0.28,-6.048 2.016,-11.312 4.536,-11.312 1.064,0 2.128,1.008 2.128,3.584"
         inkscape:connector-curvature="0" /><path
         id="path3751"
         d="m 662.577,77.751 v 28 h 8.064 v -21.28 c 1.176,-1.288 2.24,-2.24 3.36,-2.24 2.128,0 0.896,3.528 4.256,3.528 2.296,0 3.248,-1.68 3.248,-3.304 0,-2.352 -2.017,-4.984 -4.816,-4.984 -2.352,0 -4.424,1.792 -6.048,3.752 v -3.472 h -8.064"
         inkscape:connector-curvature="0" /><path
         id="path3753"
         d="m 697.967,88.839 c 0,1.456 -0.112,5.432 -0.112,6.776 0,6.328 2.408,10.473 8.177,10.473 3.304,0 7.111,-1.345 8.288,-10.361 h -2.353 c -0.616,2.856 -1.288,4.928 -3.864,4.928 -2.296,0 -2.743,-1.624 -2.743,-4.816 0,-1.904 0.224,-6.048 0.224,-8.008 0,-7.84 -3.584,-10.304 -7.84,-10.304 -1.904,0 -4.256,0.504 -5.992,3.136 v -2.912 h -8.064 v 28 h 8.064 V 87.775 c 0.224,-2.576 1.063,-5.152 3.304,-5.152 1.847,0 2.911,1.736 2.911,6.216"
         inkscape:connector-curvature="0" /><path
         id="path3755"
         d="m 738.727,77.135 c -1.903,5.096 -4.031,8.288 -6.607,8.848 -1.008,-5.936 -4.088,-8.512 -9.072,-8.512 -9.688,0 -11.983,9.576 -11.983,15.96 0,9.463 4.983,12.657 10.472,12.657 8.063,0 10.92,-6.889 10.92,-15.513 0,-0.616 -0.056,-1.176 -0.056,-1.736 3.079,-1.12 5.544,-3.696 7.392,-7.672 3.024,10.528 4.76,12.376 4.76,17.36 0,2.296 -0.896,3.136 -2.744,3.136 -2.128,0 -3.584,-1.568 -4.144,-4.2 0.392,0.56 1.12,0.729 1.68,0.729 1.288,0 2.185,-0.952 2.185,-2.128 0,-1.736 -1.12,-2.744 -3.416,-2.744 -1.624,0 -3.08,1.568 -3.08,4.088 0,4.647 2.855,8.68 9.52,8.68 3.977,0 8.12,-1.96 8.12,-7.56 0,-5.824 -2.128,-8.008 -5.88,-22.512 l -8.067,1.119 m -15.624,23.688 c -1.68,0 -3.808,-1.232 -3.808,-7.952 0,-5.208 1.288,-12.04 4.592,-12.04 0.84,0 2.128,0.504 2.969,2.912 -0.896,0.336 -1.456,1.12 -1.456,2.352 0,1.848 0.728,2.968 2.239,3.304 v 0.728 c 0,6.104 -1.344,10.696 -4.536,10.696"
         inkscape:connector-curvature="0" /><path
         id="path3757"
         d="m 387.718,137.672 v 29.735 c 0,5.208 2.017,8.681 7.784,8.681 3.024,0 8.288,-1.232 9.521,-10.361 h -2.353 c -0.224,2.801 -1.792,4.929 -3.976,4.929 -2.185,0 -2.912,-0.728 -2.912,-3.864 v -30.24 l -8.064,1.12"
         inkscape:connector-curvature="0" /><path
         id="path3759"
         d="m 417.711,147.751 v 2.688 c -0.952,-2.633 -3.416,-2.969 -5.265,-2.969 -7.784,0 -10.695,8.793 -10.695,15.625 0,9.744 5.151,12.992 9.855,12.992 3.976,0 6.048,-2.576 7.224,-5.152 0.729,3.136 2.576,5.152 6.272,5.152 3.136,0 4.032,-1.457 4.704,-5.656 -0.336,0.168 -0.616,0.224 -1.12,0.224 -2.184,0 -2.912,-0.728 -2.912,-3.864 v -19.04 h -8.063 m -2.744,3.192 c 1.792,0 2.52,1.512 2.744,2.128 v 12.712 c 0,3.248 -2.017,4.872 -3.641,4.872 -1.399,0 -4.144,-0.112 -4.144,-8.063 0.001,-4.873 1.4,-11.649 5.041,-11.649"
         inkscape:connector-curvature="0" /><path
         id="path3761"
         d="m 444.702,145.68 v 44.071 l 8.064,-2.016 v -13.608 c 0.84,1.008 2.408,1.961 5.208,1.961 7.952,0 10.248,-7.729 10.248,-14.953 0,-10.08 -4.48,-13.664 -9.521,-13.664 -2.743,0 -4.647,1.064 -5.936,2.408 v -4.199 h -8.063 m 10.584,25.535 c -1.344,0 -2.128,-0.672 -2.52,-1.287 v -15.625 c 0.616,-1.848 2.016,-2.799 3.36,-2.799 1.008,0 4.312,0.56 4.312,8.848 0,5.095 -1.231,10.863 -5.152,10.863"
         inkscape:connector-curvature="0" /><path
         id="path3763"
         d="m 470.952,147.751 v 28 h 8.064 v -21.28 c 1.176,-1.287 2.24,-2.239 3.36,-2.239 2.128,0 0.896,3.528 4.256,3.528 2.296,0 3.248,-1.681 3.248,-3.305 0,-2.352 -2.017,-4.984 -4.816,-4.984 -2.352,0 -4.424,1.793 -6.048,3.752 v -3.472 h -8.064"
         inkscape:connector-curvature="0" /><path
         id="path3765"
         d="m 502.702,147.471 c -9.072,0 -11.592,9.465 -11.592,15.793 0,9.463 4.983,12.823 11.312,12.823 6.048,0 10.08,-5.655 10.08,-14.448 0,-1.008 -0.056,-1.903 -0.112,-2.799 2.464,-0.896 4.536,-2.633 6.216,-5.32 l 3.473,8.736 c -3.192,2.407 -6.048,6.663 -6.048,10.135 0,2.744 1.456,4.984 4.647,4.984 1.568,0 2.576,-0.729 2.576,-2.296 0,-2.071 -1.064,-3.528 -2.968,-3.528 -0.224,0 -0.448,0 -0.729,0.057 -0.056,-0.225 -0.056,-0.448 -0.056,-0.672 0,-2.072 1.792,-4.088 3.808,-5.601 l 0.169,0.392 c 2.911,7.337 5.151,10.361 9.239,10.361 3.024,0 8.064,-1.232 9.353,-10.361 h -2.353 c -0.28,2.801 -1.848,4.929 -4.032,4.929 -2.407,0 -3.416,-2.688 -4.312,-4.929 l -1.288,-3.191 c 3.36,-4.648 5.936,-9.688 5.936,-13.384 0,-3.416 -2.184,-4.984 -4.256,-4.984 -1.792,0 -3.472,1.177 -3.472,3.08 0,1.568 1.12,3.192 3.472,3.192 0.448,0 0.336,-0.057 0.841,-0.112 0.056,0.28 0.056,0.504 0.056,0.784 0,2.072 -1.456,4.592 -3.92,8.008 l -4.48,-11.367 h -7.896 l 1.008,2.631 c -1.624,3.248 -3.36,5.265 -5.432,5.601 -1.12,-5.546 -4.2,-8.514 -9.24,-8.514 m 0.84,23.352 c -2.128,0 -4.2,-0.84 -4.2,-8.063 0,-5.041 1.513,-11.929 4.536,-11.929 1.064,0 2.296,0.448 3.08,2.912 -0.896,0.336 -1.512,1.12 -1.512,2.353 0,1.848 0.728,2.968 2.239,3.304 v 1.008 c 10e-4,5.768 -1.679,10.415 -4.143,10.415 m -3.248,-26.487 h 4.2 l 4.536,-10.584 h -5.88 l -2.856,10.584"
         inkscape:connector-curvature="0" /><path
         id="path3767"
         d="m 540.077,147.751 v 19.656 c 0,5.208 2.017,8.681 7.784,8.681 3.024,0 8.288,-1.232 9.521,-10.361 h -2.353 c -0.224,2.801 -1.792,4.929 -3.976,4.929 -2.185,0 -2.912,-0.728 -2.912,-3.864 v -19.04 h -8.064 m -0.615,-7.449 c 0,2.465 1.96,4.424 4.424,4.424 2.464,0 4.479,-1.959 4.479,-4.424 0,-2.463 -2.016,-4.479 -4.479,-4.479 -2.463,0 -4.424,2.016 -4.424,4.479"
         inkscape:connector-curvature="0" /><path
         id="path3769"
         d="m 583.174,158.84 c 0,1.399 -0.112,5.432 -0.112,6.775 0,6.328 2.465,10.473 8.064,10.473 3.416,0 7.224,-1.513 8.4,-10.361 h -2.353 c -0.616,2.856 -1.12,4.929 -3.695,4.929 -2.297,0 -2.912,-1.624 -2.912,-4.815 0,-1.904 0.224,-6.049 0.224,-8.009 0,-7.84 -3.584,-10.304 -7.84,-10.304 -2.24,0 -5.097,0.672 -6.944,4.76 -1.512,-3.752 -3.976,-4.816 -6.775,-4.816 -1.904,0 -4.313,0.504 -6.104,3.192 v -2.911 h -8.063 v 28 h 8.063 v -17.977 c 0.224,-2.801 1.288,-5.208 3.304,-5.208 1.904,0 2.465,2.071 2.465,3.864 v 19.32 h 8.063 v -17.977 c 0.224,-2.744 1.176,-5.152 3.304,-5.152 1.791,0 2.911,1.736 2.911,6.217"
         inkscape:connector-curvature="0" /><path
         id="path3771"
         d="m 612.18,147.751 v 2.688 c -0.952,-2.633 -3.416,-2.969 -5.265,-2.969 -7.784,0 -10.695,8.793 -10.695,15.625 0,9.744 5.151,12.992 9.855,12.992 3.977,0 6.048,-2.576 7.225,-5.152 0.728,3.136 2.575,5.152 6.271,5.152 3.136,0 4.032,-1.457 4.704,-5.656 -0.336,0.168 -0.616,0.224 -1.12,0.224 -2.184,0 -2.912,-0.728 -2.912,-3.864 v -19.04 h -8.063 m -2.744,3.192 c 1.792,0 2.52,1.512 2.744,2.128 v 12.712 c 0,3.248 -2.017,4.872 -3.641,4.872 -1.399,0 -4.144,-0.112 -4.144,-8.063 10e-4,-4.873 1.4,-11.649 5.041,-11.649"
         inkscape:connector-curvature="0" /><path
         id="path3773"
         d="m 655.579,142.151 c -0.392,-4.593 -3.248,-8.345 -8.456,-8.345 -3.359,0 -7.952,1.568 -7.952,9.521 v 31.976 c -4.592,1.513 -8.008,3.024 -8.008,7.057 0,4.368 3.92,7.393 8.4,7.393 3.191,0 7.672,-1.513 7.672,-9.521 v -30.24 h 4.088 v -2.239 h -4.088 v -4.425 c 0,-3.752 1.68,-4.592 3.136,-4.592 1.792,0 2.185,1.288 2.576,3.416 h 2.632 m -21.448,39.815 c 0,-2.407 2.576,-3.92 5.097,-4.815 v 3.248 c 0,3.304 -1.12,4.368 -2.296,4.368 -1.065,0 -2.801,-0.897 -2.801,-2.801"
         inkscape:connector-curvature="0" /><path
         id="path3775"
         d="m 666.924,171.383 c -4.032,0 -5.376,-1.959 -5.488,-6.943 5.544,-0.28 10.977,-3.809 10.977,-10.473 0,-1.176 -0.168,-6.496 -7.28,-6.496 -9.353,0 -11.872,9.297 -11.872,15.793 0,9.127 4.592,12.824 11.032,12.824 7.615,0 11.2,-5.209 13.271,-10.36 h -1.903 c -2.13,3.192 -4.201,5.655 -8.737,5.655 m 1.176,-17.36 c 0,4.145 -2.912,7.447 -6.664,7.729 0.28,-6.049 2.016,-11.313 4.536,-11.313 1.064,0 2.128,1.008 2.128,3.584"
         inkscape:connector-curvature="0" /><path
         id="path3777"
         d="m 675.702,147.751 v 28 h 8.064 v -21.28 c 1.176,-1.287 2.24,-2.239 3.36,-2.239 2.128,0 0.896,3.528 4.256,3.528 2.296,0 3.248,-1.681 3.248,-3.305 0,-2.352 -2.017,-4.984 -4.816,-4.984 -2.352,0 -4.424,1.793 -6.048,3.752 v -3.472 h -8.064"
         inkscape:connector-curvature="0" /><path
         id="path3779"
         d="m 696.812,147.751 v 19.656 c 0,5.208 2.017,8.681 7.784,8.681 3.024,0 8.288,-1.232 9.521,-10.361 h -2.353 c -0.224,2.801 -1.792,4.929 -3.976,4.929 -2.185,0 -2.912,-0.728 -2.912,-3.864 v -19.04 h -8.064 m -0.616,-7.449 c 0,2.465 1.96,4.424 4.424,4.424 2.464,0 4.479,-1.959 4.479,-4.424 0,-2.463 -2.016,-4.479 -4.479,-4.479 -2.463,0 -4.424,2.016 -4.424,4.479"
         inkscape:connector-curvature="0" /><path
         id="path3781"
         d="m 726.805,147.751 v 2.688 c -0.952,-2.633 -3.416,-2.969 -5.265,-2.969 -7.784,0 -10.695,8.793 -10.695,15.625 0,9.744 5.151,12.992 9.855,12.992 3.977,0 6.048,-2.576 7.225,-5.152 0.728,3.136 2.575,5.152 6.271,5.152 3.136,0 4.032,-1.457 4.704,-5.656 -0.336,0.168 -0.616,0.224 -1.12,0.224 -2.184,0 -2.912,-0.728 -2.912,-3.864 v -19.04 h -8.063 m -2.744,3.192 c 1.792,0 2.52,1.512 2.744,2.128 v 12.712 c 0,3.248 -2.017,4.872 -3.641,4.872 -1.399,0 -4.144,-0.112 -4.144,-8.063 10e-4,-4.873 1.4,-11.649 5.041,-11.649"
         inkscape:connector-curvature="0" /><path
         id="path3783"
         d="m 748.989,162.815 1.68,-26.265 h -8.063 l 1.624,26.265 h 4.759 m -6.887,8.512 c 0,2.464 1.96,4.425 4.424,4.425 2.464,0 4.479,-1.961 4.479,-4.425 0,-2.464 -2.016,-4.479 -4.479,-4.479 -2.463,0 -4.424,2.015 -4.424,4.479"
         inkscape:connector-curvature="0" /></g></g><g
     id="g3813"
     transform="translate(-68.571429,46.285714)"><g
       id="g3698"
       transform="matrix(0.22327292,0,0,0.22327292,290.85203,655.19008)"><path
         id="path3269"
         inkscape:connector-curvature="0"
         stroke-miterlimit="10"
         d="m -684.472,-2862.6 c 0,0 123.133,-51.443 260.27,-265.217 0,0 591.185,657.829 1425.816,0"
         style="fill:none;stroke:#12446a;stroke-width:15;stroke-miterlimit:10" /><path
         id="path3271"
         inkscape:connector-curvature="0"
         stroke-miterlimit="10"
         d="m -642.704,-2884.852 107.651,64.311 -36.922,-123.303 c 10e-4,0 -59.273,51.218 -70.729,58.992 z"
         style="fill:#12446a;stroke:#12446a;stroke-width:5;stroke-miterlimit:10" /><path
         id="path3273"
         inkscape:connector-curvature="0"
         stroke-miterlimit="10"
         d="m -537.432,-2979.97 123.301,39.487 -61.8,-113.014 c 0,0 -52.095,63.369 -61.501,73.527 z"
         style="fill:#12446a;stroke:#12446a;stroke-width:5;stroke-miterlimit:10" /><path
         id="path3275"
         inkscape:connector-curvature="0"
         stroke-miterlimit="10"
         d="m -341.199,-3049.156 -32.703,120.587 108.955,-65.977 c 0,0 -65.785,-45.549 -76.252,-54.61 z"
         style="fill:#12446a;stroke:#12446a;stroke-width:5;stroke-miterlimit:10" /><path
         id="path3277"
         inkscape:connector-curvature="0"
         stroke-miterlimit="10"
         d="m -223.593,-2968.872 -17.032,127.845 94.821,-86.283 c 0,10e-4 -66.193,-34.686 -77.789,-41.562 z"
         style="fill:#12446a;stroke:#12446a;stroke-width:5;stroke-miterlimit:10" /><path
         id="path3279"
         inkscape:connector-curvature="0"
         stroke-miterlimit="10"
         d="m -95.187,-2904.467 -0.496,126.046 84.798,-94.6 c -10e-4,0 -65.322,-20.023 -84.302,-31.446 z"
         style="fill:#12446a;stroke:#12446a;stroke-width:5;stroke-miterlimit:10" /><path
         id="path3281"
         inkscape:connector-curvature="0"
         stroke-miterlimit="10"
         d="m 37.141,-2859.309 20.319,121.886 71.827,-102.116 c 0,0 -73.165,-8.347 -92.146,-19.77 z"
         style="fill:#12446a;stroke:#12446a;stroke-width:5;stroke-miterlimit:10" /><path
         id="path3283"
         inkscape:connector-curvature="0"
         stroke-miterlimit="10"
         d="m 179.985,-2834.343 41.357,120.274 51.524,-113.58 c 0,0 -56.281,-3.243 -92.881,-6.694 z"
         style="fill:#12446a;stroke:#12446a;stroke-width:5;stroke-miterlimit:10" /><path
         id="path3285"
         inkscape:connector-curvature="0"
         stroke-miterlimit="10"
         d="m 337.542,-2837.396 58.041,110.645 35,-122.472 c -0.001,0 -79.202,11.35 -93.041,11.827 l 0,0 z"
         style="fill:#12446a;stroke:#12446a;stroke-width:5;stroke-miterlimit:10" /><path
         id="path3287"
         inkscape:connector-curvature="0"
         stroke-miterlimit="10"
         d="m 478.362,-2858.528 74.465,105.307 10.83,-127.747 c 0,0 -72.116,19.593 -85.295,22.44 z"
         style="fill:#12446a;stroke:#12446a;stroke-width:5;stroke-miterlimit:10" /><path
         id="path3289"
         inkscape:connector-curvature="0"
         stroke-miterlimit="10"
         d="m 616.3,-2898.645 85.364,92.739 -2.178,-127.021 c 10e-4,0 -61.5,29.746 -83.186,34.282 z"
         style="fill:#12446a;stroke:#12446a;stroke-width:5;stroke-miterlimit:10" /><path
         id="path3291"
         inkscape:connector-curvature="0"
         stroke-miterlimit="10"
         d="m 750.022,-2958.543 97.795,75.536 -16.796,-123.714 c 0,0 -59.313,43.645 -80.999,48.178 z"
         style="fill:#12446a;stroke:#12446a;stroke-width:5;stroke-miterlimit:10" /><path
         id="path3293"
         inkscape:connector-curvature="0"
         stroke-miterlimit="10"
         d="m 875.718,-3034.392 112.119,60.044 -39.474,-118.308 c 0,0 -43.463,35.903 -72.645,58.264 z"
         style="fill:#12446a;stroke:#12446a;stroke-width:5;stroke-miterlimit:10" /><path
         id="path3295"
         inkscape:connector-curvature="0"
         stroke-miterlimit="10"
         d="m -187.624,-2479.1253 c 0,6.626 -5.373,11.998 -12,11.998 h -10.869 c -6.626,0 -12,-5.371 -12,-11.998 v -10.869 c 0,-6.626 5.373,-12.002 12,-12.002 h 10.869 c 6.626,0 12,5.375 12,12.002 v 10.869 z"
         style="fill:none;stroke:#12446a;stroke-width:10;stroke-miterlimit:10" /><path
         id="path3297"
         inkscape:connector-curvature="0"
         stroke-miterlimit="10"
         d="m -247.625,-2479.1253 c 0,6.626 -5.371,11.998 -12,11.998 h -10.869 c -6.626,0 -12,-5.371 -12,-11.998 v -10.869 c 0,-6.626 5.373,-12.002 12,-12.002 h 10.869 c 6.629,0 12,5.375 12,12.002 v 10.869 z"
         style="fill:none;stroke:#12446a;stroke-width:10;stroke-miterlimit:10" /><path
         id="path3299"
         inkscape:connector-curvature="0"
         stroke-miterlimit="10"
         d="m -307.625,-2479.1253 c 0,6.626 -5.371,11.998 -12,11.998 h -10.867 c -6.629,0 -12.002,-5.371 -12.002,-11.998 v -10.869 c 0,-6.626 5.373,-12.002 12.002,-12.002 h 10.867 c 6.629,0 12,5.375 12,12.002 v 10.869 z"
         style="fill:none;stroke:#12446a;stroke-width:10;stroke-miterlimit:10" /><path
         id="path3301"
         inkscape:connector-curvature="0"
         stroke-miterlimit="10"
         d="m -367.623,-2479.1253 c 0,6.626 -5.373,11.998 -12.002,11.998 h -10.867 c -6.626,0 -12,-5.371 -12,-11.998 v -10.869 c 0,-6.626 5.373,-12.002 12,-12.002 h 10.867 c 6.629,0 12.002,5.375 12.002,12.002 v 10.869 z"
         style="fill:none;stroke:#12446a;stroke-width:10;stroke-miterlimit:10" /><path
         id="path3303"
         inkscape:connector-curvature="0"
         stroke-miterlimit="10"
         d="m -427.624,-2479.1253 c 0,6.626 -5.373,11.998 -12,11.998 h -10.869 c -6.626,0 -12,-5.371 -12,-11.998 v -10.869 c 0,-6.626 5.373,-12.002 12,-12.002 h 10.869 c 6.626,0 12,5.375 12,12.002 v 10.869 z"
         style="fill:none;stroke:#12446a;stroke-width:10;stroke-miterlimit:10" /><path
         id="path3305"
         inkscape:connector-curvature="0"
         stroke-miterlimit="10"
         d="m -187.624,-2419.1243 c 0,6.626 -5.373,11.998 -12,11.998 h -10.869 c -6.626,0 -12,-5.371 -12,-11.998 v -10.874 c 0,-6.622 5.373,-11.997 12,-11.997 h 10.869 c 6.626,0 12,5.375 12,11.997 v 10.874 z"
         style="fill:none;stroke:#12446a;stroke-width:10;stroke-miterlimit:10" /><path
         id="path3307"
         inkscape:connector-curvature="0"
         stroke-miterlimit="10"
         d="m -247.625,-2419.1243 c 0,6.626 -5.371,11.998 -12,11.998 h -10.869 c -6.626,0 -12,-5.371 -12,-11.998 v -10.874 c 0,-6.622 5.373,-11.997 12,-11.997 h 10.869 c 6.629,0 12,5.375 12,11.997 v 10.874 z"
         style="fill:#12446a;stroke:#12446a;stroke-width:10;stroke-miterlimit:10" /><path
         id="path3309"
         inkscape:connector-curvature="0"
         stroke-miterlimit="10"
         d="m -307.625,-2419.1243 c 0,6.626 -5.371,11.998 -12,11.998 h -10.867 c -6.629,0 -12.002,-5.371 -12.002,-11.998 v -10.874 c 0,-6.622 5.373,-11.997 12.002,-11.997 h 10.867 c 6.629,0 12,5.375 12,11.997 v 10.874 z"
         style="fill:none;stroke:#12446a;stroke-width:10;stroke-miterlimit:10" /><path
         id="path3311"
         inkscape:connector-curvature="0"
         stroke-miterlimit="10"
         d="m -367.623,-2419.1243 c 0,6.626 -5.373,11.998 -12.002,11.998 h -10.867 c -6.626,0 -12,-5.371 -12,-11.998 v -10.874 c 0,-6.622 5.373,-11.997 12,-11.997 h 10.867 c 6.629,0 12.002,5.375 12.002,11.997 v 10.874 z"
         style="fill:none;stroke:#12446a;stroke-width:10;stroke-miterlimit:10" /><path
         id="path3313"
         inkscape:connector-curvature="0"
         stroke-miterlimit="10"
         d="m -427.624,-2419.1243 c 0,6.626 -5.373,11.998 -12,11.998 h -10.869 c -6.626,0 -12,-5.371 -12,-11.998 v -10.874 c 0,-6.622 5.373,-11.997 12,-11.997 h 10.869 c 6.626,0 12,5.375 12,11.997 v 10.874 z"
         style="fill:none;stroke:#12446a;stroke-width:10;stroke-miterlimit:10" /><path
         id="path3315"
         inkscape:connector-curvature="0"
         stroke-miterlimit="10"
         d="m -187.624,-2359.1243 c 0,6.622 -5.373,11.998 -12,11.998 h -10.869 c -6.626,0 -12,-5.375 -12,-11.998 v -10.874 c 0,-6.622 5.373,-11.997 12,-11.997 h 10.869 c 6.626,0 12,5.375 12,11.997 v 10.874 z"
         style="fill:none;stroke:#12446a;stroke-width:10;stroke-miterlimit:10" /><path
         id="path3317"
         inkscape:connector-curvature="0"
         stroke-miterlimit="10"
         d="m -247.625,-2359.1243 c 0,6.622 -5.371,11.998 -12,11.998 h -10.869 c -6.626,0 -12,-5.375 -12,-11.998 v -10.874 c 0,-6.622 5.373,-11.997 12,-11.997 h 10.869 c 6.629,0 12,5.375 12,11.997 v 10.874 z"
         style="fill:none;stroke:#12446a;stroke-width:10;stroke-miterlimit:10" /><path
         id="path3319"
         inkscape:connector-curvature="0"
         stroke-miterlimit="10"
         d="m -307.625,-2359.1243 c 0,6.622 -5.371,11.998 -12,11.998 h -10.867 c -6.629,0 -12.002,-5.375 -12.002,-11.998 v -10.874 c 0,-6.622 5.373,-11.997 12.002,-11.997 h 10.867 c 6.629,0 12,5.375 12,11.997 v 10.874 z"
         style="fill:none;stroke:#12446a;stroke-width:10;stroke-miterlimit:10" /><path
         id="path3321"
         inkscape:connector-curvature="0"
         stroke-miterlimit="10"
         d="m -367.623,-2359.1243 c 0,6.622 -5.373,11.998 -12.002,11.998 h -10.867 c -6.626,0 -12,-5.375 -12,-11.998 v -10.874 c 0,-6.622 5.373,-11.997 12,-11.997 h 10.867 c 6.629,0 12.002,5.375 12.002,11.997 v 10.874 z"
         style="fill:none;stroke:#12446a;stroke-width:10;stroke-miterlimit:10" /><path
         id="path3323"
         inkscape:connector-curvature="0"
         stroke-miterlimit="10"
         d="m -427.624,-2359.1243 c 0,6.622 -5.373,11.998 -12,11.998 h -10.869 c -6.626,0 -12,-5.375 -12,-11.998 v -10.874 c 0,-6.622 5.373,-11.997 12,-11.997 h 10.869 c 6.626,0 12,5.375 12,11.997 v 10.874 z"
         style="fill:none;stroke:#12446a;stroke-width:10;stroke-miterlimit:10" /><path
         style="fill:#12446a"
         d="m -496.147,-2728.6404 344.71798,0 0,198.1949 -344.71798,0 z"
         id="rect3325" /><g
         transform="scale(1.0435074,0.95830657)"
         style="font-size:87.32829285px;fill:#ffffff;font-family:HelveticaNeueLTStd-MdCn"
         id="text3327"><path
           d="m -359.24986,-2670.9048 -24.56355,1.4959 c -1.52211,0 -2.88675,-0.4461 -4.09393,-1.3384 -1.20718,-0.8923 -1.81078,-2.0732 -1.81077,-3.5428 l 0,-0.6299 c 2.2569,-2.6767 4.1464,-6.1933 5.66851,-10.5497 1.52209,-4.4088 2.59806,-7.2955 3.2279,-8.6602 6.14087,-13.5939 10.70717,-26.0594 13.69891,-37.3964 2.99168,-11.337 4.48754,-23.5925 4.48757,-36.7666 -3e-5,-13.174 -2.57186,-19.9709 -7.71548,-20.3909 -1.73206,0.9448 -2.93925,3.5167 -3.62155,7.7154 -0.57736,3.9366 -2.17819,5.9048 -4.80248,5.9047 -2.57184,1e-4 -3.85775,-1.6532 -3.85774,-4.9599 -10e-6,-5.196 1.52209,-9.4474 4.5663,-12.7542 1.62705,-1.7844 3.56904,-2.6766 5.82597,-2.6768 l 0,-0.079 c 5.616,1e-4 9.65743,1.7322 12.12431,5.1962 1.88947,2.5719 3.07041,4.8813 3.54282,6.9281 0.47234,2.0471 0.78726,3.6742 0.94476,4.8813 0.2099,1.2072 0.36736,2.7556 0.47237,4.645 0.15742,2.8343 0.23615,5.7473 0.23619,8.7389 -4e-5,9.2902 -1.18098,19.8137 -3.54282,31.5705 -2.30943,11.7045 -5.27489,21.6244 -8.89641,29.7597 -0.62986,1.4696 -2.51937,5.3536 -5.66851,11.6519 -3.1492,6.2459 -5.32737,11.1796 -6.53454,14.8011 6.50827,-1.1022 12.59667,-1.6533 18.26521,-1.6533 l 4.88121,4.0939 -2.83425,4.0152"
           style="font-size:161.23765564px;font-style:normal;font-variant:normal;font-weight:bold;font-stretch:normal;font-family:Amatic SC;-inkscape-font-specification:Amatic SC Bold"
           id="path3187" /><path
           d="m -340.74847,-2767.6631 c -10e-6,-9.08 0.68231,-15.1946 2.04696,-18.3439 1.46961,-3.464 3.46408,-5.7209 5.98343,-6.7708 1.4696,-0.5772 3.09667,-0.8659 4.88122,-0.866 1.78451,10e-5 3.64777,0.5513 5.58978,1.6533 1.94196,1.1024 3.35909,2.0471 4.25138,2.8343 0.94473,0.7349 1.75826,1.6009 2.44061,2.5981 0.73478,0.9448 1.36461,1.7846 1.88951,2.5193 0.57731,0.7349 1.07593,1.7322 1.49585,2.9917 0.41986,1.2598 0.73477,2.2308 0.94476,2.913 0.26239,0.6824 0.52482,1.8109 0.78729,3.3854 0.31488,1.5222 0.49858,2.5719 0.55111,3.1491 0.52482,3.5692 0.86598,6.0098 1.02348,7.3219 0.15742,1.2597 0.52482,4.0152 1.10221,8.2665 0.5773,4.199 0.99719,7.2695 1.25967,9.2114 0.26239,1.8895 0.60355,4.6976 1.02348,8.424 0.41984,3.6741 0.73476,6.7445 0.94475,9.2113 0.52482,6.1935 0.78725,12.0457 0.78729,17.5567 -4e-5,26.9779 -5.90474,40.4669 -17.7141,40.4669 -2.83428,0 -5.37985,-1.2335 -7.63674,-3.7003 -2.20444,-2.4669 -3.98897,-5.7735 -5.35359,-9.9199 -1.31217,-4.1989 -2.44062,-8.529 -3.38536,-12.9904 -0.89228,-4.5137 -1.54836,-9.3687 -1.96824,-14.5649 -0.62984,-8.6077 -0.94476,-15.7983 -0.94475,-21.5718 l 0,-33.7749 m 7.63674,19.1312 1.73205,15.7459 c -2e-5,8.5028 0.44612,17.373 1.3384,26.6105 1.78451,18.4752 5.16987,27.7127 10.15608,27.7127 1.67953,0 3.1229,-1.6008 4.33011,-4.8025 1.25964,-3.2016 2.1519,-7.0856 2.6768,-11.6519 1.10217,-8.9226 1.65328,-15.7196 1.65332,-20.3909 -4e-5,-11.127 -1.94203,-29.1298 -5.82597,-54.0083 -0.83981,-5.3535 -2.25694,-9.3687 -4.25139,-12.0456 -1.9945,-2.6767 -3.98897,-4.0151 -5.98343,-4.0152 -1.942,10e-5 -3.54283,0.8924 -4.80248,2.6768 -1.25969,1.7322 -1.88952,3.9891 -1.88951,6.7707 l 0.86602,27.3978"
           style="font-size:161.23765564px;font-style:normal;font-variant:normal;font-weight:bold;font-stretch:normal;font-family:Amatic SC;-inkscape-font-specification:Amatic SC Bold"
           id="path3189" /><path
           d="m -267.13655,-2678.1479 c 2.5193,-0.3149 4.48753,-0.4723 5.9047,-0.4723 l 0,-0.079 c 4.51377,0 6.77067,1.3384 6.77072,4.0152 -5e-5,3.1492 -6.11468,4.7238 -18.34393,4.7238 l -4.80249,0.079 c -1.9945,0 -3.59533,-0.2887 -4.80249,-0.866 -1.15471,-0.5774 -1.73206,-1.7583 -1.73205,-3.5428 l 0,-3.4641 c 3.41159,0.2624 5.30109,0.3936 5.66851,0.3936 2.36186,0 3.5428,-0.8922 3.54282,-2.6768 -2e-5,-16.2707 -0.91853,-37.3701 -2.75552,-63.2983 -0.15748,-2.2569 -0.44616,-5.4323 -0.86603,-9.5263 -0.83979,-9.0275 -1.25968,-15.9295 -1.25966,-20.7058 -2e-5,10e-5 0.0787,-1.9681 0.23618,-5.9047 -1e-5,-5.0386 -1.86327,-7.5579 -5.58978,-7.558 l -3.70028,0.1574 c -3.0442,2e-4 -4.5663,-1.1545 -4.5663,-3.464 0,-2.8342 4.33011,-4.2513 12.99034,-4.2514 3.77899,10e-5 6.14086,0.8924 7.08564,2.6768 -0.20997,0.3675 -0.23621,1.4959 -0.0787,3.3853 0.20992,1.8896 0.31489,3.7529 0.31492,5.5898 -3e-5,1.8371 0.39362,6.036 1.18094,12.5967 0.83975,6.5609 1.25964,12.7805 1.25967,18.6589 -3e-5,5.8785 0.57732,17.3205 1.73204,34.3259 1.20716,16.9531 1.81075,29.681 1.81078,38.1838 l 0,1.0234"
           style="font-size:161.23765564px;font-style:normal;font-variant:normal;font-weight:bold;font-stretch:normal;font-family:Amatic SC;-inkscape-font-specification:Amatic SC Bold"
           id="path3191" /><path
           d="m -222.73321,-2711.6866 c -1.83705,-18.0552 -4.855,-27.5027 -9.05388,-28.3425 -1.41714,1.0498 -2.33565,2.257 -2.75552,3.6215 -0.41991,1.3647 -0.62985,3.0968 -0.62984,5.1962 -1e-5,10.1299 1.2859,24.9047 3.85774,44.3246 0.0525,0.3674 0.1312,1.1285 0.23619,2.2831 0.10495,1.1023 0.18368,1.9158 0.23619,2.4406 0.10495,0.5249 0.28865,1.2335 0.5511,2.1257 0.26241,0.8923 0.57733,1.5484 0.94475,1.9683 0.99722,1.1547 2.33562,1.732 4.0152,1.732 2.67677,0 4.01517,-3.5953 4.01519,-10.7859 -2e-5,-7.1906 -0.4724,-15.3784 -1.41712,-24.5636 m 5.82597,38.105 c -0.8923,1.1547 -2.15197,2.1257 -3.77901,2.913 -1.6271,0.7873 -3.62158,1.181 -5.98343,1.181 -2.30941,0 -4.30389,-0.5774 -5.98343,-1.7321 -1.67957,-1.1547 -2.96548,-2.5456 -3.85773,-4.1726 -0.8398,-1.6796 -1.54836,-3.779 -2.1257,-6.2984 -0.57736,-2.5193 -0.94476,-4.7762 -1.10221,-6.7707 -0.10498,-2.0469 -0.2362,-4.4088 -0.39364,-7.0856 -0.15747,-2.6768 -0.31493,-4.6188 -0.47238,-5.826 -1.62708,-13.279 -2.44062,-26.1118 -2.44061,-38.4986 -1e-5,-37.0552 5.64226,-55.5828 16.92681,-55.583 0.78726,2e-4 1.57456,0.3413 2.36188,1.0235 0.83975,0.63 1.25964,1.5223 1.25966,2.6768 -2e-5,1.1024 -0.60361,2.1521 -1.81077,3.1492 -1.20721,0.9449 -2.57185,1.5747 -4.09392,1.8895 -1.83704,1.8896 -3.3329,7.5056 -4.48758,16.8481 -1.15471,9.3426 -1.88952,17.5305 -2.20442,24.5635 0.83977,-0.1574 2.07319,-0.2361 3.70028,-0.2362 1.62705,10e-5 3.43783,0.8399 5.43232,2.5194 2.04694,1.6796 3.70025,3.8053 4.95995,6.3771 1.31213,2.5718 2.44058,5.721 3.38536,9.4475 0.94472,3.6741 1.65328,7.1644 2.12569,10.471 0.47235,3.3066 0.86599,6.9544 1.18094,10.9433 0.36737,5.4586 0.55107,10.1824 0.55111,14.1713 -4e-5,3.9365 -0.0525,6.692 -0.15746,8.2666 -0.10501,1.5746 -0.41992,3.3066 -0.94475,5.1961 -0.47241,1.8896 -1.15473,3.4116 -2.04696,4.5663"
           style="font-size:161.23765564px;font-style:normal;font-variant:normal;font-weight:bold;font-stretch:normal;font-family:Amatic SC;-inkscape-font-specification:Amatic SC Bold"
           id="path3193" /></g><path
         id="path3329"
         inkscape:connector-curvature="0"
         stroke-miterlimit="10"
         d="m -495.14391,-2322.1277 c 0,7.8005 5.16184,14.1195 11.52765,14.1195 h 319.65653 c 6.36581,0 11.52964,-6.3202 11.52964,-14.1195 v -391.3917 c 0,-7.7945 -5.16184,-14.1196 -11.52964,-14.1196 h -319.65653 c -6.36581,0 -11.52765,6.3251 -11.52765,14.1196 v 391.3917 z"
         style="fill:none;stroke:#12446a;stroke-width:22.00217247;stroke-miterlimit:10" /><path
         id="path3331"
         inkscape:connector-curvature="0"
         stroke-miterlimit="10"
         d="m -421.675,-2723.9601 c 0,6.408 -5.192,11.6 -11.595,11.6 h -10.502 c -6.403,0 -11.597,-5.192 -11.597,-11.6 v -39.321 c 0,-6.403 5.192,-11.595 11.597,-11.595 h 10.502 c 6.403,0 11.595,5.192 11.595,11.595 v 39.321 z"
         style="fill:#12446a;stroke:#ffffff;stroke-width:10;stroke-miterlimit:10" /><path
         id="path3333"
         inkscape:connector-curvature="0"
         stroke-miterlimit="10"
         d="m -305.712,-2723.9601 c 0,6.408 -5.192,11.6 -11.597,11.6 h -10.502 c -6.403,0 -11.595,-5.192 -11.595,-11.6 v -39.321 c 0,-6.403 5.192,-11.595 11.595,-11.595 h 10.502 c 6.406,0 11.597,5.192 11.597,11.595 v 39.321 l 0,0 z"
         style="fill:#12446a;stroke:#ffffff;stroke-width:10;stroke-miterlimit:10" /><path
         id="path3335"
         inkscape:connector-curvature="0"
         stroke-miterlimit="10"
         d="m -189.75,-2723.9601 c 0,6.408 -5.192,11.6 -11.595,11.6 h -10.502 c -6.406,0 -11.597,-5.192 -11.597,-11.6 v -39.321 c 0,-6.403 5.192,-11.595 11.597,-11.595 h 10.502 c 6.403,0 11.595,5.192 11.595,11.595 v 39.321 z"
         style="fill:#12446a;stroke:#ffffff;stroke-width:10;stroke-miterlimit:10" /><g
         transform="matrix(4.4788235,0,0,4.4788235,-968.68264,-3159.7016)"
         style="font-size:40px;font-style:normal;font-variant:normal;font-weight:normal;font-stretch:normal;line-height:125%;letter-spacing:0px;word-spacing:0px;fill:#000000;fill-opacity:1;stroke:none;font-family:FontAwesome;-inkscape-font-specification:FontAwesome"
         id="flowRoot3177" /></g></g></svg>