<svg class="ferias_svg" xmlns="http://www.w3.org/2000/svg" viewBox="0 0 800 200">
    <path d="M452.206 66.345l-1.68 26.264h8.064l-1.624-26.264h-4.76m6.888-8.512a4.398 4.398 0 0 0-4.424-4.424c-2.464 0-4.48 1.96-4.48 4.424a4.493 4.493 0 0 0 4.48 4.48c2.464 0 4.424-2.016 4.424-4.48m14.608-14.728V78.72h8.064V62.76h.28c8.848 0 13.328-7.28 13.328-13.44 0-7.56-6.16-12.6-15.232-12.6-9.464 0-17.36 5.936-17.36 13.496 0 4.48 2.8 6.496 7.28 6.496-.728-1.008-1.96-2.128-1.96-6.104 0-7.84 4.704-11.312 11.368-11.312 8.4 0 9.464 5.488 9.464 9.128 0 5.656-2.576 11.76-7.168 12.264V41.985l-8.064 1.12m37.868 7.615v2.689c-.952-2.632-3.416-2.968-5.264-2.968-7.784 0-10.696 8.792-10.696 15.624 0 9.744 5.152 12.992 9.856 12.992 3.976 0 6.048-2.576 7.224-5.152.784 3.192 2.744 5.152 6.664 5.152 3.024 0 8.288-1.232 9.52-10.36h-2.352c-.224 2.8-1.792 4.928-3.976 4.928s-2.912-.728-2.912-3.864V50.72h-8.064m0 17.976c0 3.248-2.016 4.928-3.64 4.928-1.4 0-4.144-.112-4.144-8.064 0-4.872 1.4-11.648 5.04-11.648 1.848 0 2.576 1.568 2.744 2.184v12.6"/>
    <path d="M547.376 68.697c-.896.896-2.128 1.904-3.416 2.8v-.336c0-5.488-1.12-7.672-4.872-22.176l-8.064 1.12c-.616 5.488-2.128 11.032-4.256 16.576-1.176.616-2.072 2.072-2.072 4.088 0 3.64 3.304 8.288 9.856 8.288 2.688 0 5.936-.896 7.84-3.192 2.24-1.568 5.04-3.696 7.336-7.168h-2.352m-16.184.504c0-1.176-.728-1.96-1.568-2.352 1.176-3.528 2.352-6.832 3.08-10.36 2.296 8.4 3.08 10.248 3.08 14.224 0 2.912-1.848 3.92-3.976 3.92-2.464 0-3.696-1.288-4.256-3.92.392.56 1.12.728 1.68.728 1.232 0 1.96-1.12 1.96-2.24"/>
    <path d="M562.43 50.72v2.689c-.952-2.632-3.416-2.968-5.264-2.968-7.784 0-10.696 8.792-10.696 15.624 0 9.744 5.152 12.992 9.856 12.992 3.976 0 6.048-2.576 7.224-5.152.728 3.136 2.576 5.152 6.272 5.152 3.136 0 4.032-1.456 4.704-5.656-.336.168-.616.224-1.12.224-2.184 0-2.912-.728-2.912-3.864V50.72h-8.064m-2.744 3.192c1.792 0 2.52 1.512 2.744 2.128v12.712c0 3.248-2.016 4.872-3.64 4.872-1.4 0-4.144-.112-4.144-8.064 0-4.872 1.4-11.648 5.04-11.648m44.744-3.192v2.689c-.952-2.632-3.416-2.968-5.264-2.968-7.784 0-10.696 8.792-10.696 15.624 0 9.744 5.152 12.992 9.856 12.992 3.976 0 6.048-2.576 7.224-5.152.728 3.136 2.576 5.152 6.272 5.152 3.136 0 4.032-1.456 4.704-5.656-.336.168-.616.224-1.12.224-2.184 0-2.912-.728-2.912-3.864V50.72h-8.064m-2.744 3.192c1.792 0 2.52 1.512 2.744 2.128v12.712c0 3.248-2.016 4.872-3.64 4.872-1.4 0-4.144-.112-4.144-8.064 0-4.872 1.4-11.648 5.04-11.648m44.408-4.312c-1.848 0-2.8 1.009-2.8 2.353 0 1.456 1.12 3.528 2.688 3.528.448 0 1.568-.168 1.68-.56.28 1.4.448 3.024.448 4.816 0 6.328-1.904 13.888-6.216 13.888-1.736 0-2.408-1.176-2.408-3.864V50.72h-8.064v19.04c0 5.656 3.192 9.296 8.512 9.296 8.792 0 11.536-10.36 11.536-18.928 0-6.552-1.624-10.528-5.376-10.528m21.283 24.753c-4.032 0-5.376-1.96-5.488-6.944 5.544-.28 10.976-3.808 10.976-10.472 0-1.176-.168-6.496-7.28-6.496-9.352 0-11.872 9.296-11.872 15.792 0 9.128 4.592 12.824 11.032 12.824 7.616 0 11.2-5.208 13.272-10.36h-1.904c-2.128 3.192-4.2 5.656-8.736 5.656m1.176-17.36c0 4.144-2.912 7.448-6.664 7.728.28-6.048 2.016-11.312 4.536-11.312 1.064 0 2.128 1.008 2.128 3.584"/>
    <path d="M676.156 50.72v28h8.064V57.44c1.176-1.287 2.24-2.24 3.36-2.24 2.128 0 .896 3.529 4.256 3.529 2.296 0 3.248-1.68 3.248-3.304 0-2.352-2.016-4.984-4.816-4.984-2.352 0-4.424 1.792-6.048 3.752V50.72h-8.064m35.39 11.089c0 1.456-.112 5.432-.112 6.776 0 6.328 2.408 10.472 8.176 10.472 3.304 0 7.112-1.344 8.288-10.36h-2.352c-.616 2.856-1.288 4.928-3.864 4.928-2.296 0-2.744-1.624-2.744-4.816 0-1.904.224-6.048.224-8.008 0-7.84-3.584-10.304-7.84-10.304-1.904 0-4.256.504-5.992 3.136V50.72h-8.064v28h8.064V60.745c.224-2.576 1.064-5.152 3.304-5.152 1.848 0 2.912 1.736 2.912 6.216"/>
    <path d="M752.306 50.105c-1.904 5.096-4.032 8.288-6.608 8.848-1.008-5.936-4.088-8.512-9.072-8.512-9.688 0-11.984 9.576-11.984 15.96 0 9.464 4.984 12.656 10.472 12.656 8.064 0 10.92-6.888 10.92-15.512 0-.616-.056-1.176-.056-1.736 3.08-1.12 5.544-3.696 7.392-7.672 3.024 10.528 4.76 12.376 4.76 17.36 0 2.296-.896 3.136-2.744 3.136-2.128 0-3.584-1.568-4.144-4.2.392.56 1.12.728 1.68.728 1.288 0 2.184-.952 2.184-2.128 0-1.736-1.12-2.744-3.416-2.744-1.624 0-3.08 1.568-3.08 4.088 0 4.648 2.856 8.68 9.52 8.68 3.976 0 8.12-1.96 8.12-7.56 0-5.824-2.128-8.008-5.88-22.512l-8.064 1.12m-15.624 23.688c-1.68 0-3.808-1.232-3.808-7.952 0-5.208 1.288-12.04 4.592-12.04.84 0 2.128.504 2.968 2.912-.896.336-1.456 1.12-1.456 2.352 0 1.848.728 2.968 2.24 3.304v.728c0 6.104-1.344 10.696-4.536 10.696m-419.385 44.856v44.072l8.064-2.016v-13.608c.84 1.008 2.408 1.96 5.208 1.96 7.952 0 10.248-7.728 10.248-14.952 0-10.08-4.48-13.664-9.52-13.664-2.744 0-4.648 1.064-5.936 2.408v-4.2h-8.064m10.584 25.536c-1.344 0-2.128-.672-2.52-1.288v-15.624c.616-1.848 2.016-2.8 3.36-2.8 1.008 0 4.312.56 4.312 8.848 0 5.096-1.232 10.864-5.152 10.864m26.698-23.745c-9.688 0-11.984 9.577-11.984 15.96 0 9.465 4.984 12.657 10.472 12.657 8.064 0 10.92-6.888 10.92-15.512 0-.504 0-1.008-.056-1.512 3.416-.672 7.112-2.24 8.68-4.592l-.84-1.512c-2.128 1.792-5.6 3.36-7.672 3.36h-.392c-.896-6.16-4.032-8.848-9.128-8.848m.056 23.352c-1.68 0-3.808-1.232-3.808-7.952 0-5.208 1.288-12.04 4.592-12.04.84 0 2.184.504 2.968 3.024-.84.28-1.4 1.064-1.4 2.632 0 1.288.336 2.408 2.184 2.8v.84c0 6.104-1.344 10.696-4.536 10.696"/>
    <path d="M368.156 120.72v28h8.064v-21.28c1.176-1.287 2.24-2.24 3.36-2.24 2.128 0 .896 3.529 4.256 3.529 2.296 0 3.248-1.68 3.248-3.304 0-2.352-2.016-4.984-4.816-4.984-2.352 0-4.424 1.792-6.048 3.752v-3.472h-8.064m33.141-10.081v29.737c0 5.208 2.016 8.68 7.784 8.68 3.024 0 8.288-1.232 9.52-10.36h-2.352c-.224 2.8-1.792 4.928-3.976 4.928s-2.912-.728-2.912-3.864v-30.24l-8.064 1.12"/>
    <path d="M431.29 120.72v2.689c-.953-2.632-3.417-2.968-5.265-2.968-7.784 0-10.696 8.792-10.696 15.624 0 9.744 5.152 12.992 9.856 12.992 3.976 0 6.048-2.576 7.224-5.152.728 3.136 2.576 5.152 6.272 5.152 3.136 0 4.032-1.456 4.704-5.656-.336.168-.616.224-1.12.224-2.184 0-2.912-.728-2.912-3.864v-19.04h-8.064m-2.744 3.192c1.792 0 2.52 1.512 2.744 2.128v12.712c0 3.248-2.016 4.872-3.64 4.872-1.4 0-4.144-.112-4.144-8.064 0-4.872 1.4-11.648 5.04-11.648m29.736-5.264v44.072l8.064-2.016v-13.608c.84 1.008 2.408 1.96 5.208 1.96 7.952 0 10.248-7.728 10.248-14.952 0-10.08-4.48-13.664-9.52-13.664-2.744 0-4.648 1.064-5.936 2.408v-4.2h-8.064m10.584 25.536c-1.344 0-2.128-.672-2.52-1.288v-15.624c.616-1.848 2.016-2.8 3.36-2.8 1.008 0 4.312.56 4.312 8.848 0 5.096-1.232 10.864-5.152 10.864m15.666-23.465v28h8.064v-21.28c1.176-1.287 2.24-2.24 3.36-2.24 2.128 0 .896 3.529 4.256 3.529 2.296 0 3.248-1.68 3.248-3.304 0-2.352-2.016-4.984-4.816-4.984-2.352 0-4.424 1.792-6.048 3.752v-3.472h-8.064m31.749-.281c-9.071 0-11.591 9.465-11.591 15.793 0 9.464 4.984 12.824 11.312 12.824 6.048 0 10.08-5.656 10.08-14.448 0-1.008-.056-1.904-.112-2.8 2.464-.896 4.536-2.632 6.216-5.32l3.472 8.736c-3.192 2.408-6.048 6.664-6.048 10.136 0 2.744 1.456 4.984 4.648 4.984 1.568 0 2.576-.728 2.576-2.296 0-2.072-1.064-3.528-2.968-3.528-.224 0-.448 0-.728.056-.056-.224-.056-.448-.056-.672 0-2.072 1.792-4.088 3.808-5.6l.168.392c2.912 7.336 5.152 10.36 9.24 10.36 3.024 0 8.064-1.232 9.352-10.36h-2.352c-.28 2.8-1.848 4.928-4.032 4.928-2.408 0-3.416-2.688-4.312-4.928l-1.288-3.192c3.36-4.648 5.936-9.688 5.936-13.384 0-3.416-2.184-4.984-4.256-4.984-1.792 0-3.472 1.176-3.472 3.08 0 1.568 1.12 3.192 3.472 3.192.448 0 .336-.056.84-.112.056.28.056.504.056.784 0 2.072-1.456 4.592-3.92 8.008l-4.48-11.368h-7.896l1.008 2.632c-1.624 3.248-3.36 5.264-5.432 5.6-1.12-5.544-4.2-8.512-9.24-8.512m.84 23.352c-2.128 0-4.2-.84-4.2-8.064 0-5.04 1.512-11.928 4.536-11.928 1.064 0 2.296.448 3.08 2.912-.896.336-1.512 1.12-1.512 2.352 0 1.848.728 2.968 2.24 3.304v1.008c0 5.768-1.68 10.416-4.144 10.416m-3.248-26.488h4.2l4.536-10.584h-5.88l-2.856 10.584"/>
    <path d="M553.656 120.72v19.657c0 5.208 2.016 8.68 7.784 8.68 3.024 0 8.288-1.232 9.52-10.36h-2.352c-.224 2.8-1.792 4.928-3.976 4.928s-2.912-.728-2.912-3.864v-19.04h-8.064m-.616-7.448a4.398 4.398 0 0 0 4.424 4.424c2.464 0 4.48-1.96 4.48-4.424a4.493 4.493 0 0 0-4.48-4.48c-2.464 0-4.424 2.016-4.424 4.48"/>
    <path d="M596.753 131.809c0 1.4-.112 5.432-.112 6.776 0 6.328 2.464 10.472 8.064 10.472 3.416 0 7.224-1.512 8.4-10.36h-2.352c-.616 2.856-1.12 4.928-3.696 4.928-2.296 0-2.912-1.624-2.912-4.816 0-1.904.224-6.048.224-8.008 0-7.84-3.584-10.304-7.84-10.304-2.24 0-5.096.672-6.944 4.76-1.512-3.752-3.976-4.816-6.776-4.816-1.904 0-4.312.504-6.104 3.192v-2.912h-8.064v28h8.064v-17.976c.224-2.8 1.288-5.208 3.304-5.208 1.904 0 2.464 2.072 2.464 3.864v19.32h8.064v-17.976c.224-2.744 1.176-5.152 3.304-5.152 1.792 0 2.912 1.736 2.912 6.216"/>
    <path d="M625.758 120.72v2.689c-.952-2.632-3.416-2.968-5.264-2.968-7.784 0-10.696 8.792-10.696 15.624 0 9.744 5.152 12.992 9.856 12.992 3.976 0 6.048-2.576 7.224-5.152.728 3.136 2.576 5.152 6.272 5.152 3.136 0 4.032-1.456 4.704-5.656-.336.168-.616.224-1.12.224-2.184 0-2.912-.728-2.912-3.864v-19.04h-8.064m-2.744 3.192c1.792 0 2.52 1.512 2.744 2.128v12.712c0 3.248-2.016 4.872-3.64 4.872-1.4 0-4.144-.112-4.144-8.064 0-4.872 1.4-11.648 5.04-11.648m46.144-8.793c-.392-4.591-3.248-8.343-8.456-8.343-3.36 0-7.952 1.568-7.952 9.52v31.976c-4.592 1.512-8.008 3.024-8.008 7.056 0 4.368 3.92 7.392 8.4 7.392 3.192 0 7.672-1.512 7.672-9.52v-30.24h4.088v-2.24h-4.088v-4.424c0-3.752 1.68-4.592 3.136-4.592 1.792 0 2.184 1.288 2.576 3.416h2.632m-21.448 39.816c0-2.408 2.576-3.92 5.096-4.816v3.248c0 3.304-1.12 4.368-2.296 4.368-1.064 0-2.8-.896-2.8-2.8m32.792-10.584c-4.032 0-5.376-1.96-5.488-6.944 5.544-.28 10.976-3.808 10.976-10.472 0-1.176-.168-6.496-7.28-6.496-9.352 0-11.872 9.296-11.872 15.792 0 9.128 4.592 12.824 11.032 12.824 7.616 0 11.2-5.208 13.272-10.36h-1.904c-2.128 3.192-4.2 5.656-8.736 5.656m1.176-17.36c0 4.144-2.912 7.448-6.664 7.728.28-6.048 2.016-11.312 4.536-11.312 1.064 0 2.128 1.008 2.128 3.584"/>
    <path d="M689.281 120.72v28h8.064v-21.28c1.176-1.287 2.24-2.24 3.36-2.24 2.128 0 .896 3.529 4.256 3.529 2.296 0 3.248-1.68 3.248-3.304 0-2.352-2.016-4.984-4.816-4.984-2.352 0-4.424 1.792-6.048 3.752v-3.472h-8.064m21.109-.001v19.657c0 5.208 2.017 8.68 7.785 8.68 3.024 0 8.288-1.232 9.52-10.36h-2.352c-.224 2.8-1.792 4.928-3.976 4.928s-2.912-.728-2.912-3.864v-19.04h-8.064m-.616-7.448a4.398 4.398 0 0 0 4.424 4.424c2.464 0 4.48-1.96 4.48-4.424a4.493 4.493 0 0 0-4.48-4.48c-2.464 0-4.424 2.016-4.424 4.48"/>
    <path d="M740.383 120.72v2.689c-.952-2.632-3.416-2.968-5.264-2.968-7.784 0-10.696 8.792-10.696 15.624 0 9.744 5.152 12.992 9.856 12.992 3.976 0 6.048-2.576 7.224-5.152.728 3.136 2.576 5.152 6.272 5.152 3.136 0 4.032-1.456 4.704-5.656-.336.168-.616.224-1.12.224-2.184 0-2.912-.728-2.912-3.864v-19.04h-8.064m-2.744 3.192c1.792 0 2.52 1.512 2.744 2.128v12.712c0 3.248-2.016 4.872-3.64 4.872-1.4 0-4.144-.112-4.144-8.064 0-4.872 1.4-11.648 5.04-11.648m24.929 11.872l1.68-26.264h-8.064l1.624 26.264h4.76m-6.888 8.512a4.398 4.398 0 0 0 4.424 4.424c2.464 0 4.48-1.96 4.48-4.424a4.493 4.493 0 0 0-4.48-4.48c-2.464 0-4.424 2.016-4.424 4.48M123.982 99.886c0 18.395-14.925 33.32-33.32 33.32-18.396 0-33.32-14.925-33.32-33.32 0-18.396 14.924-33.32 33.32-33.32 18.395 0 33.32 14.924 33.32 33.32m15.966 16.023c.173-.578.115-1.215-.232-1.677l-10.412-14.346 10.412-14.347c.347-.52.405-1.099.232-1.677-.174-.579-.637-.984-1.157-1.157l-16.892-5.553V59.45c0-.578-.289-1.157-.752-1.504-.52-.347-1.099-.462-1.677-.231l-16.892 5.438-10.412-14.347c-.694-.925-2.314-.925-3.008 0L78.745 63.153l-16.891-5.438c-.578-.231-1.157-.116-1.678.231a1.919 1.919 0 0 0-.752 1.504v17.702l-16.891 5.553c-.52.173-.983.578-1.157 1.157-.173.578-.116 1.157.231 1.677L52.02 99.886l-10.413 14.346c-.347.462-.404 1.099-.23 1.677.173.579.635.984 1.156 1.157l16.891 5.553v17.702c0 .578.29 1.157.752 1.504.521.347 1.1.463 1.678.231l16.891-5.438 10.413 14.347a1.92 1.92 0 0 0 1.504.752c.578 0 1.157-.29 1.504-.752l10.412-14.347 16.892 5.438c.578.232 1.157.116 1.677-.231.463-.347.752-.926.752-1.504v-17.702l16.892-5.553c.52-.173.983-.578 1.157-1.157m80.292-19.957c-1.215-.405-2.43-.636-3.703-.636-1.272 0-2.487.231-3.702.636v33.551c0 3.876-3.529 7.405-7.404 7.405-3.876 0-7.405-3.529-7.405-7.405 0-2.024-1.677-3.702-3.702-3.702s-3.702 1.678-3.702 3.702c0 8.041 6.768 14.81 14.809 14.81 8.04 0 14.809-6.769 14.809-14.81V95.952m44.426 1.562c0-.174 0-.29-.058-.405-5.206-21.866-26.551-34.246-48.07-34.246-21.635 0-42.75 12.38-48.072 34.246-.057.116-.057.231-.057.405 0 .983.867 1.85 1.85 1.85.521 0 .926-.23 1.331-.578 3.355-3.123 6.48-5.322 11.28-5.322 5.496 0 10.24 3.413 13.363 7.752.694.983 1.215 2.025 1.851 3.008.405.636.868.983 1.62.983.81 0 1.273-.347 1.678-.983.636-.983 1.156-2.025 1.85-3.008 3.124-4.339 7.81-7.752 13.305-7.752 5.496 0 10.182 3.413 13.305 7.752.694.983 1.215 2.025 1.851 3.008.405.636.868.983 1.678.983.752 0 1.215-.347 1.62-.983.636-.983 1.157-2.025 1.85-3.008 3.125-4.339 7.868-7.752 13.364-7.752 4.8 0 7.925 2.199 11.28 5.322.405.348.81.579 1.33.579.984 0 1.851-.868 1.851-1.851M220.24 55.459c0-2.025-1.678-3.702-3.703-3.702-2.024 0-3.702 1.677-3.702 3.702v5.669c1.215-.058 2.488-.116 3.702-.116 1.215 0 2.488.058 3.703.116v-5.67"/>
</svg>
