<svg xmlns="http://www.w3.org/2000/svg" viewBox="0 0 800 250" class="ferias_svg">
    <path d="M388.627 103.375l-1.68 26.264h8.064l-1.624-26.264h-4.76m6.889-8.512a4.398 4.398 0 0 0-4.424-4.424c-2.465 0-4.48 1.96-4.48 4.424a4.493 4.493 0 0 0 4.48 4.48c2.464 0 4.424-2.016 4.424-4.48M410.123 80.135v35.616h8.064v-15.96h.28c8.848 0 13.328-7.28 13.328-13.44 0-7.56-6.16-12.6-15.232-12.6-9.464 0-17.36 5.937-17.36 13.496 0 4.48 2.801 6.496 7.28 6.496-.728-1.008-1.96-2.128-1.96-6.104 0-7.84 4.704-11.312 11.368-11.312 8.4 0 9.464 5.488 9.464 9.128 0 5.656-2.576 11.76-7.168 12.264V79.015l-8.064 1.12M447.992 87.751v2.688c-.952-2.632-3.416-2.968-5.265-2.968-7.784 0-10.695 8.792-10.695 15.624 0 9.745 5.151 12.993 9.855 12.993 3.976 0 6.048-2.576 7.224-5.152.784 3.191 2.744 5.152 6.664 5.152 3.024 0 8.288-1.232 9.521-10.361h-2.353c-.224 2.8-1.792 4.928-3.976 4.928s-2.912-.728-2.912-3.864v-19.04h-8.063m0 17.976c0 3.248-2.017 4.928-3.641 4.928-1.399 0-4.144-.112-4.144-8.064 0-4.872 1.399-11.648 5.04-11.648 1.848 0 2.576 1.568 2.744 2.184v12.6"/>
    <path d="M483.798 105.727c-.896.896-2.128 1.904-3.416 2.8v-.336c0-5.488-1.12-7.672-4.872-22.176l-8.064 1.12c-.615 5.488-2.128 11.032-4.256 16.576-1.176.616-2.072 2.072-2.072 4.088 0 3.64 3.305 8.289 9.856 8.289 2.688 0 5.936-.896 7.84-3.193 2.24-1.567 5.04-3.695 7.336-7.167h-2.352m-16.185.503c0-1.176-.728-1.96-1.567-2.352 1.176-3.528 2.352-6.832 3.08-10.36 2.296 8.4 3.08 10.248 3.08 14.224 0 2.912-1.849 3.92-3.977 3.92-2.464 0-3.696-1.288-4.256-3.92.392.56 1.12.728 1.68.728 1.233 0 1.96-1.12 1.96-2.24"/>
    <path d="M498.852 87.751v2.688c-.952-2.632-3.416-2.968-5.265-2.968-7.784 0-10.695 8.792-10.695 15.624 0 9.745 5.151 12.993 9.855 12.993 3.977 0 6.048-2.576 7.225-5.152.728 3.136 2.575 5.152 6.271 5.152 3.136 0 4.032-1.457 4.704-5.657-.336.168-.616.224-1.12.224-2.184 0-2.912-.728-2.912-3.864v-19.04h-8.063m-2.745 3.192c1.792 0 2.52 1.512 2.744 2.128v12.712c0 3.248-2.017 4.872-3.641 4.872-1.399 0-4.144-.112-4.144-8.064.001-4.872 1.401-11.648 5.041-11.648m-2.576-6.608h4.2l4.536-10.584h-5.881l-2.855 10.584M540.852 87.751v2.688c-.952-2.632-3.416-2.968-5.265-2.968-7.784 0-10.695 8.792-10.695 15.624 0 9.745 5.151 12.993 9.855 12.993 3.977 0 6.048-2.576 7.225-5.152.728 3.136 2.575 5.152 6.271 5.152 3.136 0 4.032-1.457 4.704-5.657-.336.168-.616.224-1.12.224-2.184 0-2.912-.728-2.912-3.864v-19.04h-8.063m-2.745 3.192c1.792 0 2.52 1.512 2.744 2.128v12.712c0 3.248-2.017 4.872-3.641 4.872-1.399 0-4.144-.112-4.144-8.064.001-4.872 1.401-11.648 5.041-11.648M582.516 86.631c-1.849 0-2.801 1.008-2.801 2.352 0 1.456 1.12 3.528 2.688 3.528.448 0 1.567-.168 1.68-.56.28 1.4.448 3.024.448 4.816 0 6.328-1.904 13.888-6.216 13.888-1.736 0-2.408-1.176-2.408-3.864v-19.04h-8.064v19.04c0 5.656 3.192 9.297 8.513 9.297 8.792 0 11.536-10.361 11.536-18.929 0-6.552-1.624-10.528-5.376-10.528M603.799 111.383c-4.032 0-5.376-1.959-5.488-6.943 5.544-.28 10.977-3.808 10.977-10.472 0-1.176-.168-6.496-7.28-6.496-9.353 0-11.872 9.296-11.872 15.792 0 9.127 4.592 12.825 11.032 12.825 7.615 0 11.2-5.209 13.271-10.36h-1.903c-2.13 3.19-4.201 5.654-8.737 5.654m1.176-17.36c0 4.144-2.912 7.448-6.664 7.728.28-6.048 2.016-11.312 4.536-11.312 1.064 0 2.128 1.008 2.128 3.584"/>
    <path d="M612.577 87.751v28h8.064v-21.28c1.176-1.288 2.24-2.24 3.36-2.24 2.128 0 .896 3.528 4.256 3.528 2.296 0 3.248-1.68 3.248-3.304 0-2.352-2.017-4.984-4.816-4.984-2.352 0-4.424 1.792-6.048 3.752v-3.472h-8.064M647.967 98.839c0 1.456-.112 5.432-.112 6.776 0 6.328 2.408 10.473 8.177 10.473 3.304 0 7.111-1.345 8.288-10.361h-2.353c-.616 2.856-1.288 4.928-3.864 4.928-2.296 0-2.743-1.624-2.743-4.816 0-1.904.224-6.048.224-8.008 0-7.84-3.584-10.304-7.84-10.304-1.904 0-4.256.504-5.992 3.136v-2.912h-8.064v28h8.064V97.775c.224-2.576 1.063-5.152 3.304-5.152 1.847 0 2.911 1.736 2.911 6.216"/>
    <path d="M688.727 87.135c-1.903 5.096-4.031 8.288-6.607 8.848-1.008-5.936-4.088-8.512-9.072-8.512-9.688 0-11.983 9.576-11.983 15.96 0 9.463 4.983 12.657 10.472 12.657 8.063 0 10.92-6.889 10.92-15.513 0-.616-.056-1.176-.056-1.736 3.079-1.12 5.544-3.696 7.392-7.672 3.024 10.528 4.76 12.376 4.76 17.36 0 2.296-.896 3.136-2.744 3.136-2.128 0-3.584-1.568-4.144-4.2.392.56 1.12.729 1.68.729 1.288 0 2.185-.952 2.185-2.128 0-1.736-1.12-2.744-3.416-2.744-1.624 0-3.08 1.568-3.08 4.088 0 4.647 2.855 8.68 9.52 8.68 3.977 0 8.12-1.96 8.12-7.56 0-5.824-2.128-8.008-5.88-22.512l-8.067 1.119m-15.624 23.688c-1.68 0-3.808-1.232-3.808-7.952 0-5.208 1.288-12.04 4.592-12.04.84 0 2.128.504 2.969 2.912-.896.336-1.456 1.12-1.456 2.352 0 1.848.728 2.968 2.239 3.304v.728c0 6.104-1.344 10.696-4.536 10.696M337.718 147.672v29.735c0 5.208 2.017 8.681 7.784 8.681 3.024 0 8.288-1.232 9.521-10.361h-2.353c-.224 2.801-1.792 4.929-3.976 4.929-2.185 0-2.912-.728-2.912-3.864v-30.24l-8.064 1.12"/>
    <path d="M367.711 157.751v2.688c-.952-2.633-3.416-2.969-5.265-2.969-7.784 0-10.695 8.793-10.695 15.625 0 9.744 5.151 12.992 9.855 12.992 3.976 0 6.048-2.576 7.224-5.152.729 3.136 2.576 5.152 6.272 5.152 3.136 0 4.032-1.457 4.704-5.656-.336.168-.616.224-1.12.224-2.184 0-2.912-.728-2.912-3.864v-19.04h-8.063m-2.744 3.192c1.792 0 2.52 1.512 2.744 2.128v12.712c0 3.248-2.017 4.872-3.641 4.872-1.399 0-4.144-.112-4.144-8.063.001-4.873 1.4-11.649 5.041-11.649M394.702 155.68v44.071l8.064-2.016v-13.608c.84 1.008 2.408 1.961 5.208 1.961 7.952 0 10.248-7.729 10.248-14.953 0-10.08-4.48-13.664-9.521-13.664-2.743 0-4.647 1.064-5.936 2.408v-4.199h-8.063m10.584 25.535c-1.344 0-2.128-.672-2.52-1.287v-15.625c.616-1.848 2.016-2.799 3.36-2.799 1.008 0 4.312.56 4.312 8.848 0 5.095-1.231 10.863-5.152 10.863M420.952 157.751v28h8.064v-21.28c1.176-1.287 2.24-2.239 3.36-2.239 2.128 0 .896 3.528 4.256 3.528 2.296 0 3.248-1.681 3.248-3.305 0-2.352-2.017-4.984-4.816-4.984-2.352 0-4.424 1.793-6.048 3.752v-3.472h-8.064M452.702 157.471c-9.072 0-11.592 9.465-11.592 15.793 0 9.463 4.983 12.823 11.312 12.823 6.048 0 10.08-5.655 10.08-14.448 0-1.008-.056-1.903-.112-2.799 2.464-.896 4.536-2.633 6.216-5.32l3.473 8.736c-3.192 2.407-6.048 6.663-6.048 10.135 0 2.744 1.456 4.984 4.647 4.984 1.568 0 2.576-.729 2.576-2.296 0-2.071-1.064-3.528-2.968-3.528-.224 0-.448 0-.729.057-.056-.225-.056-.448-.056-.672 0-2.072 1.792-4.088 3.808-5.601l.169.392c2.911 7.337 5.151 10.361 9.239 10.361 3.024 0 8.064-1.232 9.353-10.361h-2.353c-.28 2.801-1.848 4.929-4.032 4.929-2.407 0-3.416-2.688-4.312-4.929l-1.288-3.191c3.36-4.648 5.936-9.688 5.936-13.384 0-3.416-2.184-4.984-4.256-4.984-1.792 0-3.472 1.177-3.472 3.08 0 1.568 1.12 3.192 3.472 3.192.448 0 .336-.057.841-.112.056.28.056.504.056.784 0 2.072-1.456 4.592-3.92 8.008l-4.48-11.367h-7.896l1.008 2.631c-1.624 3.248-3.36 5.265-5.432 5.601-1.12-5.546-4.2-8.514-9.24-8.514m.84 23.352c-2.128 0-4.2-.84-4.2-8.063 0-5.041 1.513-11.929 4.536-11.929 1.064 0 2.296.448 3.08 2.912-.896.336-1.512 1.12-1.512 2.353 0 1.848.728 2.968 2.239 3.304v1.008c.001 5.768-1.679 10.415-4.143 10.415m-3.248-26.487h4.2l4.536-10.584h-5.88l-2.856 10.584"/>
    <path d="M490.077 157.751v19.656c0 5.208 2.017 8.681 7.784 8.681 3.024 0 8.288-1.232 9.521-10.361h-2.353c-.224 2.801-1.792 4.929-3.976 4.929-2.185 0-2.912-.728-2.912-3.864v-19.04h-8.064m-.615-7.449a4.397 4.397 0 0 0 4.424 4.424c2.464 0 4.479-1.959 4.479-4.424a4.493 4.493 0 0 0-4.479-4.479c-2.463 0-4.424 2.016-4.424 4.479"/>
    <path d="M533.174 168.84c0 1.399-.112 5.432-.112 6.775 0 6.328 2.465 10.473 8.064 10.473 3.416 0 7.224-1.513 8.4-10.361h-2.353c-.616 2.856-1.12 4.929-3.695 4.929-2.297 0-2.912-1.624-2.912-4.815 0-1.904.224-6.049.224-8.009 0-7.84-3.584-10.304-7.84-10.304-2.24 0-5.097.672-6.944 4.76-1.512-3.752-3.976-4.816-6.775-4.816-1.904 0-4.313.504-6.104 3.192v-2.911h-8.063v28h8.063v-17.977c.224-2.801 1.288-5.208 3.304-5.208 1.904 0 2.465 2.071 2.465 3.864v19.32h8.063v-17.977c.224-2.744 1.176-5.152 3.304-5.152 1.791 0 2.911 1.736 2.911 6.217"/>
    <path d="M562.18 157.751v2.688c-.952-2.633-3.416-2.969-5.265-2.969-7.784 0-10.695 8.793-10.695 15.625 0 9.744 5.151 12.992 9.855 12.992 3.977 0 6.048-2.576 7.225-5.152.728 3.136 2.575 5.152 6.271 5.152 3.136 0 4.032-1.457 4.704-5.656-.336.168-.616.224-1.12.224-2.184 0-2.912-.728-2.912-3.864v-19.04h-8.063m-2.744 3.192c1.792 0 2.52 1.512 2.744 2.128v12.712c0 3.248-2.017 4.872-3.641 4.872-1.399 0-4.144-.112-4.144-8.063.001-4.873 1.4-11.649 5.041-11.649M605.579 152.151c-.392-4.593-3.248-8.345-8.456-8.345-3.359 0-7.952 1.568-7.952 9.521v31.976c-4.592 1.513-8.008 3.024-8.008 7.057 0 4.368 3.92 7.393 8.4 7.393 3.191 0 7.672-1.513 7.672-9.521v-30.24h4.088v-2.239h-4.088v-4.425c0-3.752 1.68-4.592 3.136-4.592 1.792 0 2.185 1.288 2.576 3.416h2.632m-21.448 39.815c0-2.407 2.576-3.92 5.097-4.815v3.248c0 3.304-1.12 4.368-2.296 4.368-1.065 0-2.801-.897-2.801-2.801M616.924 181.383c-4.032 0-5.376-1.959-5.488-6.943 5.544-.28 10.977-3.809 10.977-10.473 0-1.176-.168-6.496-7.28-6.496-9.353 0-11.872 9.297-11.872 15.793 0 9.127 4.592 12.824 11.032 12.824 7.615 0 11.2-5.209 13.271-10.36h-1.903c-2.13 3.192-4.201 5.655-8.737 5.655m1.176-17.36c0 4.145-2.912 7.447-6.664 7.729.28-6.049 2.016-11.313 4.536-11.313 1.064 0 2.128 1.008 2.128 3.584"/>
    <path d="M625.702 157.751v28h8.064v-21.28c1.176-1.287 2.24-2.239 3.36-2.239 2.128 0 .896 3.528 4.256 3.528 2.296 0 3.248-1.681 3.248-3.305 0-2.352-2.017-4.984-4.816-4.984-2.352 0-4.424 1.793-6.048 3.752v-3.472h-8.064M646.812 157.751v19.656c0 5.208 2.017 8.681 7.784 8.681 3.024 0 8.288-1.232 9.521-10.361h-2.353c-.224 2.801-1.792 4.929-3.976 4.929-2.185 0-2.912-.728-2.912-3.864v-19.04h-8.064m-.616-7.449a4.397 4.397 0 0 0 4.424 4.424c2.464 0 4.479-1.959 4.479-4.424a4.493 4.493 0 0 0-4.479-4.479c-2.463 0-4.424 2.016-4.424 4.479"/>
    <path d="M676.805 157.751v2.688c-.952-2.633-3.416-2.969-5.265-2.969-7.784 0-10.695 8.793-10.695 15.625 0 9.744 5.151 12.992 9.855 12.992 3.977 0 6.048-2.576 7.225-5.152.728 3.136 2.575 5.152 6.271 5.152 3.136 0 4.032-1.457 4.704-5.656-.336.168-.616.224-1.12.224-2.184 0-2.912-.728-2.912-3.864v-19.04h-8.063m-2.744 3.192c1.792 0 2.52 1.512 2.744 2.128v12.712c0 3.248-2.017 4.872-3.641 4.872-1.399 0-4.144-.112-4.144-8.063.001-4.873 1.4-11.649 5.041-11.649M698.989 172.815l1.68-26.265h-8.063l1.624 26.265h4.759m-6.887 8.512a4.399 4.399 0 0 0 4.424 4.425c2.464 0 4.479-1.961 4.479-4.425a4.492 4.492 0 0 0-4.479-4.479c-2.463 0-4.424 2.015-4.424 4.479"/>
    <g>
        <path stroke-miterlimit="10" d="M69.457 62.335s27.492-11.486 58.11-59.216c0 0 131.996 146.875 318.347 0" fill="none" stroke="#12446a" stroke-width="3.34905"/>
        <path stroke-miterlimit="10" d="M78.782 57.366l24.036 14.36-8.244-27.53S81.34 55.63 78.782 57.365zM102.287 36.13l27.53 8.816-13.799-25.233s-11.631 14.148-13.731 16.416zM146.1 20.682l-7.302 26.924 24.327-14.731s-14.688-10.17-17.025-12.193zM172.358 38.607l-3.802 28.544 21.17-19.264s-14.779-7.745-17.368-9.28zM201.028 52.987l-.11 28.143 18.932-21.122s-14.584-4.47-18.822-7.021zM230.573 63.07l4.537 27.213 16.037-22.8s-16.336-1.863-20.574-4.413zM262.466 68.644l9.234 26.854 11.504-25.36s-12.566-.724-20.738-1.494zM297.645 67.962l12.959 24.704 7.814-27.345s-17.684 2.535-20.773 2.641zM329.086 63.244l16.626 23.512 2.418-28.522s-16.102 4.374-19.044 5.01zM359.884 54.287l19.06 20.706-.487-28.36s-13.731 6.641-18.573 7.654zM389.74 40.913l21.835 16.865-3.75-27.622s-13.243 9.745-18.085 10.757zM417.805 23.978l25.033 13.406-8.814-26.415s-9.704 8.017-16.22 13.01z" fill="#12446a" stroke="#12446a" stroke-width="1.11635"/>
        <path stroke-miterlimit="10" d="M180.39 147.954a2.68 2.68 0 0 1-2.68 2.68h-2.427a2.68 2.68 0 0 1-2.68-2.68v-2.427c0-1.479 1.2-2.68 2.68-2.68h2.427c1.48 0 2.68 1.2 2.68 2.68v2.427zM166.993 147.954c0 1.48-1.2 2.68-2.68 2.68h-2.426a2.68 2.68 0 0 1-2.68-2.68v-2.427c0-1.479 1.2-2.68 2.68-2.68h2.426c1.48 0 2.68 1.2 2.68 2.68v2.427zM153.596 147.954c0 1.48-1.199 2.68-2.679 2.68h-2.426a2.68 2.68 0 0 1-2.68-2.68v-2.427c0-1.479 1.2-2.68 2.68-2.68h2.426c1.48 0 2.68 1.2 2.68 2.68v2.427zM140.2 147.954a2.68 2.68 0 0 1-2.68 2.68h-2.426a2.68 2.68 0 0 1-2.679-2.68v-2.427c0-1.479 1.2-2.68 2.68-2.68h2.426c1.48 0 2.68 1.2 2.68 2.68v2.427zM126.804 147.954a2.68 2.68 0 0 1-2.68 2.68h-2.426a2.68 2.68 0 0 1-2.68-2.68v-2.427c0-1.479 1.2-2.68 2.68-2.68h2.426c1.48 0 2.68 1.2 2.68 2.68v2.427zM180.39 161.35a2.68 2.68 0 0 1-2.68 2.68h-2.427a2.68 2.68 0 0 1-2.68-2.68v-2.427a2.68 2.68 0 0 1 2.68-2.679h2.427c1.48 0 2.68 1.2 2.68 2.679v2.428z" fill="none" stroke="#12446a" stroke-width="2.2327"/>
        <path stroke-miterlimit="10" d="M166.993 161.35c0 1.48-1.2 2.68-2.68 2.68h-2.426a2.68 2.68 0 0 1-2.68-2.68v-2.427a2.68 2.68 0 0 1 2.68-2.679h2.426c1.48 0 2.68 1.2 2.68 2.679v2.428z" fill="#12446a" stroke="#12446a" stroke-width="2.2327"/>
        <path stroke-miterlimit="10" d="M153.596 161.35c0 1.48-1.199 2.68-2.679 2.68h-2.426a2.68 2.68 0 0 1-2.68-2.68v-2.427a2.68 2.68 0 0 1 2.68-2.679h2.426c1.48 0 2.68 1.2 2.68 2.679v2.428zM140.2 161.35a2.68 2.68 0 0 1-2.68 2.68h-2.426a2.68 2.68 0 0 1-2.679-2.68v-2.427a2.68 2.68 0 0 1 2.68-2.679h2.426c1.48 0 2.68 1.2 2.68 2.679v2.428zM126.804 161.35a2.68 2.68 0 0 1-2.68 2.68h-2.426a2.68 2.68 0 0 1-2.68-2.68v-2.427a2.68 2.68 0 0 1 2.68-2.679h2.426c1.48 0 2.68 1.2 2.68 2.679v2.428zM180.39 174.747a2.68 2.68 0 0 1-2.68 2.68h-2.427a2.68 2.68 0 0 1-2.68-2.68v-2.428a2.68 2.68 0 0 1 2.68-2.678h2.427c1.48 0 2.68 1.2 2.68 2.678v2.428zM166.993 174.747a2.68 2.68 0 0 1-2.68 2.68h-2.426a2.68 2.68 0 0 1-2.68-2.68v-2.428a2.68 2.68 0 0 1 2.68-2.678h2.426c1.48 0 2.68 1.2 2.68 2.678v2.428zM153.596 174.747a2.68 2.68 0 0 1-2.679 2.68h-2.426a2.68 2.68 0 0 1-2.68-2.68v-2.428a2.68 2.68 0 0 1 2.68-2.678h2.426c1.48 0 2.68 1.2 2.68 2.678v2.428zM140.2 174.747a2.68 2.68 0 0 1-2.68 2.68h-2.426a2.68 2.68 0 0 1-2.679-2.68v-2.428a2.68 2.68 0 0 1 2.68-2.678h2.426c1.48 0 2.68 1.2 2.68 2.678v2.428zM126.804 174.747a2.68 2.68 0 0 1-2.68 2.68h-2.426a2.68 2.68 0 0 1-2.68-2.68v-2.428a2.68 2.68 0 0 1 2.68-2.678h2.426c1.48 0 2.68 1.2 2.68 2.678v2.428z" fill="none" stroke="#12446a" stroke-width="2.2327"/>
        <path d="M111.504 92.244h76.967v44.252h-76.967z" fill="#12446a"/>
        <g font-size="161.238" fill="#fff">
            <path d="M138.58 129.999l-5.723.32c-.355 0-.672-.096-.954-.287-.281-.19-.422-.443-.422-.758v-.135c.526-.572.966-1.325 1.321-2.257.355-.943.605-1.56.752-1.853 1.43-2.908 2.495-5.576 3.192-8.001.697-2.426 1.045-5.048 1.045-7.867s-.599-4.273-1.797-4.363c-.404.202-.685.753-.844 1.65-.135.843-.508 1.264-1.119 1.264-.6 0-.899-.353-.899-1.06 0-1.113.355-2.022 1.064-2.73.38-.382.832-.573 1.357-.573v-.016c1.309 0 2.25.37 2.825 1.111.44.55.716 1.045.826 1.483.11.438.183.786.22 1.044.049.258.085.59.11.994.037.606.055 1.23.055 1.87 0 1.988-.275 4.24-.825 6.755-.539 2.504-1.23 4.627-2.073 6.367-.147.315-.587 1.146-1.32 2.493-.735 1.337-1.242 2.392-1.523 3.167a27.78 27.78 0 0 1 4.255-.354l1.137.876-.66.86M142.89 109.296c0-1.943.16-3.251.478-3.925.342-.741.807-1.224 1.394-1.449a3.332 3.332 0 0 1 1.137-.185c.416 0 .85.118 1.302.354.453.235.783.438.99.606.22.157.41.343.57.556.17.202.317.382.44.539.134.157.25.37.348.64.098.27.171.477.22.623.061.146.123.388.184.725.073.325.116.55.128.674.122.763.202 1.285.239 1.566.036.27.122.86.256 1.769l.294 1.97c.061.405.14 1.006.238 1.803.098.786.171 1.443.22 1.971.123 1.325.184 2.577.184 3.757 0 5.772-1.376 8.658-4.127 8.658-.66 0-1.254-.264-1.78-.792-.513-.528-.929-1.235-1.247-2.122a28.5 28.5 0 0 1-.789-2.78 25.412 25.412 0 0 1-.458-3.116c-.147-1.842-.22-3.38-.22-4.616v-7.226m1.779 4.093l.403 3.37c0 1.819.104 3.716.312 5.693.416 3.953 1.205 5.93 2.367 5.93.39 0 .727-.343 1.008-1.028.294-.685.502-1.516.624-2.493.257-1.91.385-3.364.385-4.363 0-2.38-.452-6.233-1.357-11.556-.196-1.145-.526-2.005-.99-2.577-.465-.573-.93-.86-1.395-.86-.452 0-.825.192-1.119.573-.293.371-.44.854-.44 1.449l.202 5.862M160.041 128.449a12.854 12.854 0 0 1 1.376-.101v-.017c1.052 0 1.577.286 1.577.859 0 .674-1.424 1.01-4.273 1.01l-1.12.018c-.464 0-.837-.062-1.118-.186-.27-.123-.404-.376-.404-.758v-.74c.795.055 1.235.083 1.32.083.551 0 .826-.19.826-.572 0-3.482-.214-7.996-.642-13.544a61.904 61.904 0 0 0-.201-2.038c-.196-1.932-.294-3.409-.294-4.43l.055-1.264c0-1.078-.434-1.617-1.302-1.617l-.862.034c-.71 0-1.064-.247-1.064-.742 0-.606 1.009-.91 3.026-.91.88 0 1.431.192 1.651.573-.049.08-.055.32-.018.725.049.404.073.803.073 1.196 0 .393.092 1.291.275 2.695.196 1.404.294 2.735.294 3.992 0 1.258.134 3.706.403 7.345.282 3.627.422 6.35.422 8.17v.219M170.387 121.273c-.428-3.863-1.131-5.885-2.11-6.065-.33.225-.544.483-.642.775-.098.292-.147.663-.147 1.112 0 2.168.3 5.329.9 9.484.012.079.03.241.054.488l.055.523c.025.112.068.264.129.455.06.19.134.33.22.42.232.248.544.371.935.371.624 0 .936-.769.936-2.308 0-1.538-.11-3.29-.33-5.255m1.357 8.153c-.208.247-.501.455-.88.623-.38.169-.844.253-1.394.253-.539 0-1.003-.124-1.395-.37a2.696 2.696 0 0 1-.898-.894c-.196-.359-.361-.808-.496-1.347a9.378 9.378 0 0 1-.256-1.449c-.025-.438-.055-.943-.092-1.516a18.22 18.22 0 0 0-.11-1.247 62.299 62.299 0 0 1-.569-8.237c0-7.928 1.315-11.893 3.944-11.893.183 0 .367.073.55.22a.655.655 0 0 1 .294.572c0 .236-.14.46-.422.674a2.37 2.37 0 0 1-.954.404c-.428.405-.777 1.606-1.046 3.605-.269 2-.44 3.751-.513 5.256.195-.034.483-.05.862-.05s.8.179 1.266.538c.477.36.862.815 1.155 1.365.306.55.569 1.224.789 2.021.22.786.385 1.533.495 2.24.11.708.202 1.489.275 2.342.086 1.168.129 2.179.129 3.032 0 .843-.012 1.432-.037 1.769a5.166 5.166 0 0 1-.22 1.112c-.11.404-.27.73-.477.977"/>
        </g>
        <path stroke-miterlimit="10" d="M111.728 183.008c0 1.741 1.153 3.152 2.574 3.152h71.37c1.422 0 2.575-1.411 2.575-3.152V95.62c0-1.74-1.152-3.152-2.574-3.152h-71.37c-1.422 0-2.575 1.412-2.575 3.152v87.388z" fill="none" stroke="#12446a" stroke-width="4.91238654"/>
        <path stroke-miterlimit="10" d="M128.132 93.29a2.59 2.59 0 0 1-2.589 2.59h-2.345a2.59 2.59 0 0 1-2.589-2.59v-8.78a2.59 2.59 0 0 1 2.59-2.589h2.344a2.59 2.59 0 0 1 2.589 2.589v8.78zM154.023 93.29a2.59 2.59 0 0 1-2.589 2.59h-2.345a2.59 2.59 0 0 1-2.589-2.59v-8.78a2.59 2.59 0 0 1 2.59-2.589h2.344c1.43 0 2.59 1.16 2.59 2.589v8.78zM179.915 93.29a2.59 2.59 0 0 1-2.59 2.59h-2.344a2.59 2.59 0 0 1-2.59-2.59v-8.78a2.59 2.59 0 0 1 2.59-2.589h2.345a2.59 2.59 0 0 1 2.589 2.589v8.78z" fill="#12446a" stroke="#fff" stroke-width="2.2327"/>
    </g>
</svg>
