<svg class="prendas_svg" xmlns="http://www.w3.org/2000/svg" viewBox="0 0 1597 1328">
    <g>
        <path d="M102.231 682.413c-3.274 7.64-8.367 10.914-16.19 10.914-12.278 0-19.28-8.095-19.28-27.922 0-15.917 4.547-31.56 15.552-31.56 4.547 0 7.64 2.728 7.64 8.458 0 3.365-1.092 6.367-2.183 7.185 1 1.092 2.638 1.637 4.275 1.637 3.547 0 4.82-2.546 4.82-6.366 0-9.46-7.822-14.189-17.008-14.189-18.645 0-23.83 19.737-23.83 36.38 0 22.193 9.187 33.29 24.74 33.29 11.46 0 20.646-6.003 23.738-16.918l-2.274-.91" />
        <path d="M118.59 652.853c-13.643 0-17.736 14.644-17.736 25.285 0 15.644 8.914 21.192 17.008 21.192 9.823 0 15.553-9.004 15.553-23.92 0-1.274-.09-2.547-.09-3.73 5.547-.91 11.55-3.547 13.915-7.458l-1.364-2.455c-3.002 3.092-7.459 5.457-12.46 5.457h-.547c-1.182-8.095-4.73-14.37-14.28-14.37m.91 39.564c-4.092 0-8.822-2.82-8.822-14.644 0-8.913 2.729-19.918 10.278-19.918 2.728 0 5.093 1.455 6.548 5.639-2.365.09-3.638 1.091-3.638 3.91 0 3.093 1.455 4.366 4.912 4.548.09.728.09 1.456.09 2.183 0 11.551-3.001 18.282-9.368 18.282" />
        <path d="M140.23 636.391v49.75c0 5.913 2.091 13.189 10.459 13.189 4.002 0 9.914-1.637 12.642-16.826h-3.365c-1.364 6.548-3.638 9.914-6.549 9.914-3.91 0-4.092-5.821-4.092-8.186v-49.114l-9.096 1.273" />
        <path d="M188.325 664.677c0-9.64-6.094-11.824-12.097-11.824-13.097 0-17.372 15.28-17.372 25.467 0 15.553 8.095 21.01 16.462 21.01 9.278 0 17.918-7.913 21.01-16.826h-2.91c-3.183 7.094-8.64 9.914-14.37 9.914-5.185 0-9.55-2.183-10.46-11.824 12.279-1.365 19.737-7.458 19.737-15.917m-19.828 12.37c0-8.914 3.092-19.737 9.46-19.737 2.91 0 4.547 1.91 4.547 6.458 0 6.821-5.457 11.914-14.007 13.279" />
        <path d="M213.9 667.224c.818 1.182 1.91 1.91 3.364 1.91 2.365 0 3.548-2.365 3.548-5.366 0-7.095-4.093-10.915-11.733-10.915-13.734 0-16.826 15.19-16.826 25.285 0 15.735 9.004 21.192 17.371 21.192 8.914 0 17.008-7.913 19.919-16.826h-3.092c-3.093 6.73-7.459 9.914-13.825 9.914-5.912 0-10.733-2.73-10.733-15.462 0-8.64 2.001-19.282 8.55-19.282 3.183 0 5.002 2 5.002 4.82 0 1.728-.545 3.911-1.546 4.73" />
        <path d="M246.94 667.224c.819 1.182 1.91 1.91 3.366 1.91 2.364 0 3.547-2.365 3.547-5.366 0-7.095-4.093-10.915-11.733-10.915-13.734 0-16.826 15.19-16.826 25.285 0 15.735 9.004 21.192 17.372 21.192 8.913 0 17.008-7.913 19.918-16.826h-3.092c-3.093 6.73-7.458 9.914-13.825 9.914-5.912 0-10.732-2.73-10.732-15.462 0-8.64 2-19.282 8.55-19.282 3.182 0 5.002 2 5.002 4.82 0 1.728-.546 3.911-1.547 4.73" />
        <path d="M259.426 653.308v32.834c0 5.912 2.092 13.188 10.46 13.188 4.002 0 9.914-1.637 12.642-16.826h-3.365c-1.364 6.548-3.638 9.914-6.549 9.914-3.91 0-4.092-5.821-4.092-8.186v-30.924h-9.096m-1.637-13.097c0 3.365 2.638 6.003 6.003 6.003 3.274 0 6.094-2.638 6.094-6.003 0-3.274-2.82-6.094-6.094-6.094-3.365 0-6.003 2.82-6.003 6.094" />
        <path d="M295.698 652.853c-13.643 0-17.736 14.644-17.736 25.285 0 15.644 8.913 21.192 17.008 21.192 9.823 0 15.553-9.004 15.553-23.92 0-1.274-.091-2.547-.091-3.73 5.548-.91 11.55-3.547 13.916-7.458l-1.365-2.455c-3.001 3.092-7.458 5.457-12.46 5.457h-.546c-1.182-8.095-4.73-14.37-14.28-14.37m.91 39.564c-4.093 0-8.822-2.82-8.822-14.644 0-8.913 2.728-19.918 10.277-19.918 2.729 0 5.094 1.455 6.549 5.639-2.365.09-3.638 1.091-3.638 3.91 0 3.093 1.455 4.366 4.911 4.548.091.728.091 1.456.091 2.183 0 11.551-3.001 18.282-9.368 18.282m-2.728-44.658h5.002l7.367-17.19h-7.73l-4.64 17.19" />
        <path d="M317.246 653.308v45.476h9.095V669.68c1.729-7.094 4.457-9.913 8.186-9.913 3.092 0 5.821 2 5.821 9.823 0 2.455-.273 13.551-.273 15.825 0 7.458 3.184 13.916 10.642 13.916 2.273 0 6.093-.546 6.093-7.003v-.637c-.545.546-2.092.728-2.91.728-4.548 0-4.639-5.185-4.639-7.55 0-5.275.455-11.55.455-15.552 0-7.186-1.455-16.463-12.46-16.463-3.093 0-7.367.728-10.915 7.367v-6.912h-9.095" />
        <path d="M155.552 833.35c-4.126-1.302-8.035-1.736-11.075-1.736-28.663 0-38 40.824-38 73.83 0 52.984 23.886 71.659 52.766 71.659 44.515 0 57.761-44.298 57.761-82.516 0-41.693-15.851-81.648-69.053-81.648-41.258 0-73.83 23.886-73.83 53.418 0 16.07 9.555 24.104 25.19 24.104-1.304-.869-6.732-4.56-6.732-21.064 0-32.355 23.017-48.64 51.898-48.64 24.755 0 46.253 11.943 46.253 68.4 0 35.396-8.47 71.443-32.138 71.443-22.15 0-25.407-32.138-25.407-51.247 0-29.532 7.818-67.316 22.367-76.002m77.124 3.909v29.966h-7.383v7.6h7.383v70.79c0 14.332 4.778 31.487 25.624 31.487 9.989 0 24.32-3.909 33.875-40.173h-8.035c-4.125 15.852-11.726 23.67-19.543 23.67-9.771 0-10.206-12.812-10.206-19.544v-66.23h16.72v-7.6h-16.72V834.22l-21.715 3.04"  />
        <path d="M323.515 866.14c-32.572 0-42.343 34.961-42.343 60.367 0 37.35 21.28 50.596 40.606 50.596 23.452 0 37.133-21.498 37.133-57.11 0-3.04-.218-6.08-.218-8.903 13.246-2.172 27.578-8.469 33.224-17.806l-3.257-5.863c-7.166 7.383-17.806 13.029-29.75 13.029h-1.302c-2.823-19.327-11.292-34.31-34.093-34.31m2.172 94.46c-9.772 0-21.063-6.732-21.063-34.961 0-21.28 6.514-47.556 24.537-47.556 6.515 0 12.16 3.475 15.635 13.464-5.646.217-8.686 2.605-8.686 9.337 0 7.383 3.474 10.423 11.726 10.857.217 1.737.217 3.475.217 5.212 0 27.578-7.166 43.647-22.366 43.647"  />
        <path d="M374.963 867.226V975.8h21.714v-69.487c4.126-16.938 10.64-23.67 19.544-23.67 7.383 0 13.897 4.778 13.897 23.452 0 5.863-.651 32.355-.651 37.784 0 17.59 7.166 33.224 25.406 33.224 9.12 0 23.235-3.909 29.75-40.173h-8.035c-3.475 16.504-8.903 23.67-15.635 23.67-9.554 0-9.772-14.115-9.772-18.675 0-11.292 1.303-26.71 1.303-36.915 0-16.72-3.474-38.87-29.749-38.87-7.383 0-17.589 1.737-26.058 17.59v-16.504h-21.714m77.521-35.83c-2.171 2.824-6.731 4.344-11.509 4.344-11.291 0-19.326-6.298-33.657-6.298-14.766 0-24.755 6.515-28.447 19.11l1.086.434c3.04-3.475 6.732-5.212 11.943-5.212 10.64 0 21.498 7.166 34.31 7.166 14.765 0 27.143-10.206 27.36-19.543h-1.086"  />
        <path d="M516.065 866.14c-32.573 0-42.344 34.961-42.344 60.367 0 37.35 21.28 50.596 40.606 50.596 23.452 0 37.133-21.498 37.133-57.11 0-3.474 0-6.732-.435-10.206 9.555-4.777 14.55-16.286 16.938-25.84h-6.297c-1.52 4.342-4.126 10.857-12.378 10.857-3.691-16.503-12.812-28.664-33.223-28.664m2.171 94.46c-9.772 0-21.063-6.732-21.063-34.961 0-21.28 6.514-47.556 24.537-47.556 6.08 0 11.51 3.04 14.984 11.51-4.778.65-8.035 3.908-8.035 9.77 0 8.252 3.692 13.03 11.726 13.03 0 1.52.217 3.04.217 4.56 0 27.578-7.166 43.647-22.366 43.647m-408.502 14.208c-2.823-.217-5.863-.434-9.12-.434-33.006 0-64.493 23.669-64.493 51.247 0 18.892 10.858 26.275 28.23 26.275-5.212-4.56-9.99-10.206-9.99-25.624 0-19.76 12.16-33.658 31.487-39.086v150.049h23.886V974.808m19.836 53.852v108.575h21.714v-69.488c4.126-16.937 10.64-23.669 19.544-23.669 7.383 0 13.897 4.778 13.897 23.452 0 5.863-.651 32.355-.651 37.784 0 17.589 7.165 33.224 25.406 33.224 9.12 0 23.235-3.91 29.75-40.173h-8.035c-3.475 16.503-8.903 23.67-15.635 23.67-9.555 0-9.772-14.115-9.772-18.675 0-11.292 1.303-26.71 1.303-36.915 0-16.72-3.474-38.87-29.75-38.87-7.382 0-17.588 1.737-26.057 17.589v-16.503H129.57"  />
        <path d="M300.855 1064.056c0-29.315-8.252-39.955-18.24-39.955-7.166 0-11.075 5.428-11.075 11.074 0 5.429 3.474 11.51 10.423 11.51 1.303 0 4.343-.218 5.646-1.738 1.303 6.297 1.954 14.766 1.954 22.8 0 25.624-6.514 54.287-24.32 54.287-10.64 0-12.595-9.988-12.595-19.543v-73.83h-21.715v80.127c0 19.326 14.766 29.75 29.75 29.75 29.966 0 40.172-41.693 40.172-74.482m16.815-35.396v78.391c0 14.115 4.995 31.487 24.972 31.487 9.555 0 23.67-3.91 30.184-40.173h-8.035c-3.257 15.635-8.686 23.67-15.634 23.67-9.338 0-9.772-13.898-9.772-19.544v-73.83H317.67m-3.908-31.27c0 8.035 6.297 14.332 14.331 14.332 7.818 0 14.55-6.297 14.55-14.331 0-7.818-6.732-14.55-14.55-14.55-8.034 0-14.331 6.732-14.331 14.55"  />
        <path d="M432.497 1055.804c0-23.017-14.549-28.229-28.88-28.229-31.27 0-41.475 36.48-41.475 60.801 0 37.133 19.326 50.162 39.303 50.162 22.15 0 42.778-18.892 50.161-40.173h-6.948c-7.6 16.938-20.63 23.67-34.31 23.67-12.377 0-22.8-5.212-24.972-28.23 29.315-3.257 47.121-17.806 47.121-38m-47.338 29.531c0-21.28 7.383-47.12 22.584-47.12 6.948 0 10.857 4.56 10.857 15.417 0 16.286-13.029 28.446-33.44 31.703"  />
        <path d="M444.264 1028.66v108.575h21.715v-79.91c4.994-5.212 11.292-10.858 17.806-10.858 6.297 0 7.166 5.429 12.16 5.429 3.475 0 9.99-2.606 9.99-11.292 0-7.166-4.561-13.029-14.333-13.029-12.377 0-18.892 9.12-25.623 19.326v-18.24h-21.715m72.948-.001v108.575h21.715v-69.488c4.126-16.937 10.64-23.669 19.543-23.669 7.383 0 13.898 4.778 13.898 23.452 0 5.863-.652 32.355-.652 37.784 0 17.589 7.166 33.224 25.407 33.224 9.12 0 23.234-3.91 29.749-40.173h-8.035c-3.474 16.503-8.903 23.67-15.634 23.67-9.555 0-9.772-14.115-9.772-18.675 0-11.292 1.303-26.71 1.303-36.915 0-16.72-3.474-38.87-29.75-38.87-7.382 0-17.588 1.737-26.057 17.589v-16.503h-21.715"  />
        <path d="M658.314 1027.575c-32.572 0-42.344 34.96-42.344 60.367 0 37.35 21.28 50.596 40.607 50.596 23.452 0 37.132-21.498 37.132-57.11 0-3.475 0-6.732-.434-10.206 9.554-4.777 14.549-16.286 16.938-25.84h-6.298c-1.52 4.342-4.126 10.857-12.377 10.857-3.692-16.504-12.812-28.664-33.224-28.664m2.172 94.46c-9.772 0-21.064-6.732-21.064-34.961 0-21.28 6.515-47.556 24.538-47.556 6.08 0 11.509 3.04 14.983 11.509-4.777.651-8.034 3.909-8.034 9.772 0 8.251 3.691 13.029 11.726 13.029 0 1.52.217 3.04.217 4.56 0 27.577-7.166 43.646-22.366 43.646"/>
        <path d="M386.003 693.175c-.844 0-1.623.065-2.337.26 1.104-9.672 21.422-14.606 21.422-30.444 0-5.648-2.597-12.204-13.308-12.204-7.724 0-12.398 3.375-12.398 8.958 0 3.18 1.493 6.491 4.544 6.491 1.038 0 2.272-.39 3.31-1.623-1.752-1.168-2.207-3.505-2.207-4.868 0-3.051 2.142-5.777 6.167-5.777 4.414 0 6.297 3.31 6.297 8.049 0 14.995-18.695 20.967-18.695 33.625 0 2.402.584 3.505.843 3.895 2.143-1.169 4.285-1.623 6.427-1.623 3.05 0 9.477 2.077 14.476 2.077 3.83 0 6.88-1.233 6.88-5.582 0-1.493-.389-3.051-.973-4.544-1.818 3.05-3.246 4.479-7.985 4.479-4.284 0-8.763-1.169-12.463-1.169m43.029-42.453c-10.97 0-16.748 10.191-16.748 25.316 0 16.228 6.686 23.758 15.839 23.758 12.074 0 16.293-13.177 16.293-25.705 0-11.944-3.83-23.37-15.384-23.37m-8.634 25.122c0-11.23 3.246-21.875 9.348-21.875 3.7 0 7.92 3.894 7.92 19.214 0 11.425-2.338 21.746-8.764 21.746-6.362 0-8.504-9.997-8.504-19.085m42.057-24.991c-6.167 4.414-10.776 5.063-14.086 5.063l-.195 3.375h7.27v40.117h7.01v-48.555m18.67 27.134c1.752-2.727 3.7-3.765 6.231-3.765 4.999 0 7.53 4.024 7.53 9.477 0 4.804-2.012 11.165-8.698 11.165-7.076 0-9.023-7.14-9.023-15.839 0-12.723 4.609-25.316 11.62-25.316 2.92 0 4.933 2.142 4.933 4.479 0 .844-.26 1.753-.65 2.272.585.13 1.04.26 1.624.26 2.401 0 3.375-2.208 3.375-3.83 0-3.116-3.635-6.167-9.542-6.167-12.269 0-18.24 13.177-18.24 27.718 0 15.45 6.62 21.357 15.319 21.357 10.256 0 15.125-8.18 15.125-16.034 0-7.985-5.258-13.762-12.464-13.762-5.063 0-8.05 2.921-8.05 5.648 0 .844.325 1.623.91 2.337"/>
    </g>
</svg>
